<svg xmlns="http://www.w3.org/2000/svg" xmlns:xlink="http://www.w3.org/1999/xlink" width="1080" zoomAndPan="magnify" viewBox="0 0 810 809.999993" height="1080" preserveAspectRatio="xMidYMid meet" version="1.0"><defs><clipPath id="3e52e9e72b"><path d="M 63 135 L 707 135 L 707 469.183594 L 63 469.183594 Z M 63 135 " clip-rule="nonzero"/></clipPath></defs><g clip-path="url(#3e52e9e72b)"><path fill="#231f20" d="M 523.636719 263.832031 C 527.484375 263.640625 527.671875 260.707031 529.386719 259.222656 C 529.121094 258.953125 528.855469 258.6875 528.550781 258.421875 C 527.101562 260.019531 525.652344 261.660156 523.636719 263.832031 Z M 485.351562 281.316406 C 484.894531 281.050781 484.398438 280.78125 483.941406 280.476562 C 483.144531 281.8125 482.34375 283.144531 481.542969 284.476562 C 482 284.742188 482.496094 285.011719 482.953125 285.277344 C 483.753906 283.980469 484.550781 282.648438 485.351562 281.316406 Z M 468.210938 296.972656 C 468.628906 297.164062 469.125 297.316406 469.542969 297.46875 C 470.191406 295.753906 470.839844 294.039062 471.449219 292.324219 C 470.953125 292.171875 470.457031 291.980469 470 291.792969 C 469.390625 293.542969 468.78125 295.257812 468.210938 296.972656 Z M 527.75 263.335938 C 528.015625 263.601562 528.246094 263.832031 528.472656 264.097656 C 530.261719 262.457031 532.015625 260.859375 534.300781 258.800781 C 530.074219 258.535156 529.84375 262.078125 527.75 263.335938 Z M 466.726562 280.285156 C 467.296875 278.457031 467.828125 276.667969 468.476562 274.648438 C 465.847656 274.839844 465.125 276.746094 466.726562 280.285156 Z M 515.558594 259.222656 C 510.796875 259.601562 511.066406 263.375 508.96875 265.050781 C 509.273438 265.277344 509.503906 265.542969 509.808594 265.773438 C 511.558594 263.792969 513.3125 261.8125 515.558594 259.222656 Z M 517.199219 263.792969 C 517.539062 264.097656 517.882812 264.402344 518.300781 264.746094 C 519.824219 262.953125 521.425781 261.164062 523.484375 258.800781 C 519.027344 258.726562 518.988281 262.191406 517.199219 263.792969 Z M 613.265625 267.144531 C 613.496094 266.878906 613.6875 266.574219 613.914062 266.269531 C 609.839844 263.90625 605.726562 261.582031 601.648438 259.222656 C 601.535156 259.410156 601.421875 259.601562 601.34375 259.753906 C 605.304688 262.230469 609.304688 264.707031 613.265625 267.144531 Z M 510.1875 260.210938 C 506.644531 260.59375 506.339844 263.984375 504.664062 266.117188 C 508.054688 265.621094 508.664062 262.457031 510.1875 260.210938 Z M 537.308594 259.070312 C 533.804688 259.90625 532.28125 263.222656 529.84375 265.507812 C 533.691406 265.050781 534.566406 261.050781 537.308594 259.070312 Z M 533.464844 264.707031 C 538.453125 265.238281 539.632812 262 541.957031 258.800781 C 537.730469 259.375 536.777344 262.914062 533.464844 264.707031 Z M 294.890625 394.683594 C 298.433594 393.617188 301.972656 392.589844 305.59375 391.523438 C 300.984375 388.324219 298.050781 391.828125 294.890625 394.683594 Z M 497.960938 274.421875 C 498.152344 274.800781 498.339844 275.183594 498.492188 275.5625 C 505.730469 273.011719 513.007812 270.421875 520.246094 267.867188 C 512.777344 269.886719 505.007812 271.105469 497.960938 274.421875 Z M 95.015625 269.238281 C 87.664062 267.945312 80.3125 267.03125 73.039062 269.886719 C 80.390625 271.03125 87.664062 268.324219 95.015625 269.238281 Z M 192.648438 368.324219 C 185.90625 367.484375 179.164062 365.769531 174.324219 372.132812 C 180.230469 370.875 186.363281 369.617188 192.648438 368.324219 Z M 450.992188 303.945312 C 458.421875 303.675781 462.992188 299.066406 466.914062 292.132812 C 461.125 296.4375 455.984375 300.25 450.992188 303.945312 Z M 117.605469 440.398438 C 125.949219 438.035156 133.71875 435.828125 141.492188 433.617188 C 133.566406 435.332031 124.539062 433.085938 117.605469 440.398438 Z M 256.414062 441.3125 C 256.605469 441.503906 256.757812 441.695312 256.949219 441.847656 C 260.378906 439.066406 263.84375 436.246094 267.234375 433.351562 C 267.578125 433.046875 267.5 432.207031 267.613281 431.597656 C 267.121094 431.597656 266.511719 431.484375 266.054688 431.675781 C 264.035156 432.472656 262.054688 433.273438 260.109375 434.304688 C 259.386719 434.683594 258.625 435.40625 258.28125 436.207031 C 257.519531 437.847656 257.023438 439.597656 256.414062 441.3125 Z M 292.910156 379.980469 C 293.328125 382.304688 293.824219 384.78125 294.28125 387.179688 C 298.699219 388.132812 303.078125 389.046875 307.726562 390.039062 C 302.621094 386.570312 297.707031 383.21875 292.910156 379.980469 Z M 497.769531 262.726562 C 494.34375 263.714844 491.066406 268.097656 491.675781 270.914062 C 497.160156 268.933594 503.558594 268.324219 505.425781 261.203125 C 505.199219 260.972656 504.96875 260.78125 504.78125 260.554688 C 502.722656 262.914062 500.703125 265.277344 498.644531 267.640625 C 498.457031 267.488281 498.265625 267.335938 498.074219 267.183594 C 499.066406 265.507812 500.054688 263.832031 501.046875 262.117188 C 500.855469 262 500.703125 261.886719 500.476562 261.773438 C 499.105469 263.527344 497.730469 265.277344 496.359375 266.992188 C 496.132812 266.878906 495.941406 266.726562 495.75 266.574219 C 496.4375 265.316406 497.085938 264.058594 497.769531 262.726562 Z M 291.878906 387.105469 C 292.148438 386.914062 292.414062 386.761719 292.679688 386.570312 C 291.839844 377.542969 285.785156 372.132812 279.84375 367.714844 C 282.8125 373.007812 286.128906 379.027344 289.519531 385.007812 C 290.011719 385.847656 291.078125 386.417969 291.878906 387.105469 Z M 217.867188 208.210938 C 207.542969 201.355469 196.34375 203.414062 185.183594 205.011719 C 196.191406 205.089844 207.160156 205.242188 217.867188 208.210938 Z M 200.304688 224.515625 C 191.847656 217.316406 179.125 210.726562 173.257812 210.726562 C 182.019531 216.972656 191.582031 219.984375 200.304688 224.515625 Z M 279.003906 288.742188 C 276.035156 287.371094 273.0625 286.609375 270.890625 284.859375 C 266.511719 281.355469 262.738281 284.210938 257.976562 285.085938 C 271.15625 289.734375 274.507812 290.34375 279.003906 288.742188 Z M 185.03125 364.972656 C 185.066406 365.277344 185.066406 365.617188 185.105469 365.921875 C 193.714844 366.304688 202.363281 366.683594 211.007812 367.027344 C 211.007812 366.609375 211.046875 366.191406 211.046875 365.808594 C 202.4375 363.90625 193.867188 360.820312 185.03125 364.972656 Z M 238.742188 424.207031 C 238.664062 424.285156 238.589844 424.398438 238.511719 424.476562 C 240.570312 425.390625 242.625 426.339844 244.722656 427.253906 C 250.550781 429.960938 256.605469 431.636719 263.082031 430.875 C 264.226562 430.761719 265.175781 429.425781 266.207031 428.664062 C 265.023438 428.207031 263.84375 427.445312 262.625 427.371094 C 260.261719 427.179688 257.824219 427.710938 255.5 427.371094 C 249.863281 426.492188 244.300781 425.273438 238.742188 424.207031 Z M 154.824219 201.125 C 164.460938 197.738281 173.488281 194.574219 182.210938 191.488281 C 175.734375 188.820312 161.335938 193.507812 154.824219 201.125 Z M 423.71875 340.246094 C 423.984375 339.980469 424.25 339.753906 424.519531 339.484375 C 429.964844 332.628906 436.480469 326.953125 444.25 322.953125 C 448.097656 320.972656 449.429688 317.808594 450.765625 314.265625 C 440.136719 321.238281 430.652344 329.390625 423.71875 340.246094 Z M 405.28125 460.472656 C 405.699219 448.625 407.414062 437.425781 412.558594 427.027344 C 408.175781 432.742188 404.976562 439.101562 403.453125 446 C 402.460938 450.609375 400.75 455.710938 405.28125 460.472656 Z M 416.976562 359.332031 C 417.28125 359.601562 417.546875 359.90625 417.8125 360.132812 C 418.308594 359.410156 418.691406 358.53125 419.335938 357.960938 C 425.8125 352.058594 432.175781 346.039062 438.878906 340.4375 C 441.546875 338.230469 442.117188 335.523438 443.03125 331.941406 C 432.480469 339.941406 424.707031 349.65625 416.976562 359.332031 Z M 277.519531 397.3125 C 284.984375 397.464844 291.957031 394.914062 298.242188 389.695312 C 296.03125 389.351562 294.050781 389.390625 292.414062 388.664062 C 289.554688 387.410156 287.691406 388.78125 285.746094 390.417969 C 283.003906 392.742188 280.183594 395.066406 277.519531 397.3125 Z M 204.953125 346.761719 C 204.953125 346.914062 204.953125 347.066406 204.953125 347.21875 C 208.304688 346.648438 211.808594 346.535156 214.933594 345.390625 C 224.835938 341.808594 233.789062 336.476562 242.742188 329.847656 C 229.710938 335.675781 217.332031 341.199219 204.953125 346.761719 Z M 464.058594 325.316406 C 461.125 316.820312 464.667969 308.324219 464.4375 299.675781 C 461.660156 302.992188 459.183594 306.382812 456.820312 309.808594 C 456.554688 310.152344 456.402344 310.800781 456.59375 311.105469 C 459.03125 315.90625 461.542969 320.589844 464.058594 325.316406 Z M 78.105469 272.667969 C 77.988281 272.972656 77.914062 273.277344 77.835938 273.542969 C 79.589844 274.304688 81.378906 275.714844 83.132812 275.675781 C 91.855469 275.449219 100.578125 274.878906 109.300781 274.421875 C 110.214844 274.382812 111.167969 274.421875 112.921875 274.421875 C 105.035156 270.648438 91.09375 270.117188 78.105469 272.667969 Z M 91.894531 285.238281 C 93.949219 288.132812 93.949219 287.980469 96.695312 287.675781 C 107.015625 286.574219 117.339844 285.507812 127.625 284.4375 C 130.023438 284.210938 132.425781 283.980469 134.785156 283.753906 C 134.746094 283.410156 134.746094 283.066406 134.710938 282.726562 C 120.464844 281.238281 106.367188 283.867188 91.894531 285.238281 Z M 284.527344 287.945312 C 276.871094 281.050781 273.9375 271.601562 269.632812 262.878906 C 270.242188 268.476562 270.96875 274 272.109375 279.410156 C 273.175781 284.554688 279.042969 288.554688 284.527344 287.945312 Z M 179.277344 217.089844 C 181.335938 219.566406 182.515625 222.34375 184.535156 223.257812 C 193.21875 227.144531 202.171875 230.496094 211.007812 234.078125 C 208.609375 230.382812 187.46875 219.566406 179.277344 217.089844 Z M 270.890625 282.535156 C 269.863281 276.402344 268.757812 270.230469 267.882812 264.019531 C 267.578125 262.078125 268.339844 259.832031 267.652344 258.039062 C 266.207031 254.117188 264.1875 250.382812 262.242188 246.191406 C 262.015625 246.878906 261.902344 247.070312 261.902344 247.257812 C 263.347656 256.972656 264.910156 266.648438 266.167969 276.402344 C 266.585938 279.601562 267.765625 281.773438 270.890625 282.535156 Z M 220.570312 418.339844 C 226.96875 422.683594 233.21875 427.21875 239.808594 431.253906 C 246.320312 435.253906 250.359375 435.371094 257.023438 432.742188 C 243.769531 430.492188 232.609375 423.40625 220.570312 418.339844 Z M 197.066406 360.476562 C 202.476562 361.886719 208.191406 363.636719 214.019531 364.855469 C 219.390625 366 224.875 366.53125 230.285156 367.332031 C 230.4375 366.761719 230.550781 366.226562 230.664062 365.65625 C 223.273438 363.523438 215.808594 361.617188 208.535156 359.21875 C 204.078125 357.734375 200.382812 359.144531 197.066406 360.476562 Z M 158.824219 433.882812 C 150.289062 433.503906 124.121094 439.445312 118.863281 442.796875 C 133.339844 444.167969 145.71875 437.425781 158.824219 433.882812 Z M 397.015625 440.09375 C 397.242188 440.054688 397.472656 440.015625 397.738281 439.980469 C 399.683594 435.40625 401.585938 430.835938 403.644531 426.339844 C 407.566406 417.65625 414.15625 410.914062 420.441406 403.980469 C 421.507812 402.875 422.195312 401.464844 423.03125 400.171875 C 422.804688 399.980469 422.539062 399.75 422.269531 399.597656 C 418.347656 403.75 414.5 408.019531 410.5 412.09375 C 404.175781 418.492188 399.53125 425.882812 397.089844 434.570312 C 396.597656 436.285156 397.015625 438.226562 397.015625 440.09375 Z M 394.386719 422.457031 C 394.730469 422.570312 395.074219 422.722656 395.414062 422.835938 C 403.453125 407.902344 416.367188 397.121094 427.640625 384.855469 C 422.082031 389.007812 416.59375 393.160156 411.71875 398 C 405.585938 404.054688 399.226562 410.074219 395.339844 417.960938 C 394.691406 419.292969 394.691406 420.96875 394.386719 422.457031 Z M 235.578125 278.230469 C 245.332031 282.761719 254.664062 285.085938 265.023438 281.621094 C 262.929688 280.210938 260.949219 279.105469 259.195312 277.695312 C 257.558594 276.363281 256.074219 276.289062 254.054688 276.859375 C 251.160156 277.621094 248.148438 277.964844 245.179688 278.152344 C 242.207031 278.382812 239.199219 278.230469 235.578125 278.230469 Z M 412.175781 369.695312 C 419.453125 363.789062 426.726562 357.921875 434.042969 352.058594 C 438.269531 348.667969 439.335938 346.800781 439.871094 341.46875 C 429.164062 349.429688 420.367188 359.21875 412.175781 369.695312 Z M 426.5 390.761719 C 426.195312 390.648438 425.890625 390.53125 425.585938 390.457031 C 421.355469 394.570312 416.710938 398.417969 412.9375 402.953125 C 407.605469 409.3125 402.730469 416.09375 397.96875 422.835938 C 396.597656 424.816406 396.140625 427.445312 395.300781 429.730469 C 398.617188 425.351562 400.976562 420.398438 404.445312 416.359375 C 410.121094 409.730469 416.632812 403.828125 422.574219 397.351562 C 424.25 395.523438 425.203125 392.96875 426.5 390.761719 Z M 257.101562 435.179688 C 254.28125 435.597656 252.074219 435.980469 249.824219 436.285156 C 247.882812 436.589844 246.929688 437.390625 246.585938 439.597656 C 246.28125 441.503906 244.949219 443.40625 243.65625 444.929688 C 241.597656 447.445312 239.199219 449.691406 236.492188 452.550781 C 246.09375 449.691406 253.671875 445.425781 257.101562 435.179688 Z M 419.566406 353.199219 C 420.175781 352.398438 420.785156 351.5625 421.433594 350.761719 C 427.375 343.296875 434.003906 336.589844 441.773438 330.914062 C 443.984375 329.316406 445.277344 326.457031 446.953125 324.171875 C 446.726562 324.019531 446.460938 323.828125 446.191406 323.636719 C 435.449219 328.78125 421.625 343.296875 419.566406 353.199219 Z M 293.441406 289.316406 C 297.519531 290.953125 301.667969 292.707031 305.859375 294.34375 C 306.851562 294.726562 308.03125 295.257812 309.023438 295.105469 C 315.535156 294.039062 322.011719 292.820312 328.828125 291.601562 C 316.832031 288.363281 304.945312 288.4375 293.441406 289.316406 Z M 175.429688 208.363281 C 187.886719 212.25 198.058594 218.765625 207.847656 226.078125 C 204.039062 221.050781 199.925781 216.363281 195.351562 212.210938 C 192.039062 209.203125 188.078125 207.03125 183.164062 207.832031 C 180.917969 208.175781 178.59375 208.175781 175.429688 208.363281 Z M 177.601562 455.445312 C 187.507812 456.855469 222.207031 444.167969 226.742188 437.960938 C 225.066406 437.847656 223.390625 437.847656 221.75 437.578125 C 218.742188 437.046875 215.921875 436.703125 214.628906 440.4375 C 214.398438 441.046875 213.601562 441.464844 213.027344 441.882812 C 205.21875 447.828125 196.304688 451.371094 186.78125 453.539062 C 183.734375 454.265625 180.648438 454.835938 177.601562 455.445312 Z M 354.199219 296.859375 C 354.238281 296.742188 354.3125 296.628906 354.351562 296.515625 C 353.398438 296.097656 352.484375 295.371094 351.496094 295.257812 C 348.714844 294.878906 345.820312 295.105469 343.152344 294.457031 C 335.875 292.667969 328.675781 293.847656 321.476562 294.609375 C 316.792969 295.105469 312.488281 295.753906 311.726562 302.039062 C 311.308594 305.429688 309.175781 308.628906 307.800781 311.90625 C 310.394531 309.886719 312.601562 307.640625 314.546875 305.238281 C 320.753906 297.621094 328.183594 293.199219 338.503906 295.066406 C 343.648438 296.019531 348.941406 296.285156 354.199219 296.859375 Z M 243.351562 326.382812 C 228.339844 328.972656 203.621094 341.007812 199.390625 345.65625 C 215.277344 341.277344 229.292969 333.734375 243.351562 326.382812 Z M 230.664062 252.515625 C 227.3125 247.449219 223.542969 245.582031 218.511719 244.59375 C 209.980469 242.839844 201.675781 239.867188 192.269531 237.089844 C 194.171875 239.070312 195.277344 241.203125 196.914062 241.734375 C 207.847656 245.429688 218.855469 248.78125 230.664062 252.515625 Z M 208.722656 202.421875 C 205.601562 199.375 201.90625 197.8125 197.523438 197.964844 C 187.316406 198.269531 177.601562 200.746094 168.34375 205.355469 C 171.660156 205.582031 175.429688 206.613281 178.210938 205.394531 C 188.152344 201.050781 198.363281 202.195312 208.722656 202.421875 Z M 251.539062 397.121094 C 265.558594 400.4375 277.441406 397.578125 287.042969 387.179688 C 286.472656 386.914062 285.824219 386.648438 285.175781 386.417969 C 284.414062 386.191406 283.613281 386 283.308594 385.886719 C 273.671875 392.816406 262.511719 394.226562 251.539062 397.121094 Z M 169.792969 430.339844 C 169.792969 430.152344 169.753906 430 169.753906 429.769531 C 169.335938 429.730469 168.917969 429.769531 168.535156 429.65625 C 156.804688 427.140625 144.996094 427.40625 133.1875 429.121094 C 129.910156 429.578125 126.292969 430.035156 124.882812 433.425781 C 139.738281 432.398438 154.785156 431.371094 169.792969 430.339844 Z M 400.367188 449.65625 C 402.003906 440.246094 405.664062 431.980469 411.566406 425.007812 C 416.023438 419.75 418.386719 413.769531 420.367188 407.140625 C 419.792969 407.445312 419.488281 407.523438 419.300781 407.675781 C 410.273438 416.96875 403.871094 427.789062 400.214844 440.167969 C 399.300781 443.140625 398.5 446.417969 400.367188 449.65625 Z M 262.625 357.046875 C 270.207031 364.246094 275.082031 373.199219 280.335938 381.921875 C 281.480469 383.789062 284.832031 384.398438 287.15625 385.542969 C 287.308594 385.238281 287.460938 384.96875 287.613281 384.664062 C 287.347656 384.019531 287.195312 383.292969 286.8125 382.722656 C 283.347656 377.429688 279.539062 372.363281 276.414062 366.875 C 273.289062 361.351562 268.035156 359.296875 262.625 357.046875 Z M 219.199219 236.78125 C 219.503906 236.515625 219.808594 236.289062 220.152344 236.019531 C 215.960938 228.785156 212.304688 221.203125 207.429688 214.460938 C 204.265625 210.15625 199.808594 206.117188 192.914062 208.25 C 200.304688 212.746094 205.90625 218.765625 209.484375 226.230469 C 211.769531 230.917969 215.847656 233.394531 219.199219 236.78125 Z M 442.308594 284.972656 C 442.078125 284.933594 441.851562 284.898438 441.621094 284.859375 C 441.621094 283.335938 441.621094 281.8125 441.621094 280.324219 C 441.507812 280.285156 441.394531 280.285156 441.242188 280.285156 C 440.785156 282.496094 440.328125 284.667969 439.832031 286.878906 C 439.183594 285.847656 439.109375 284.933594 439.183594 284.019531 C 439.296875 283.03125 439.566406 282.078125 439.792969 281.011719 C 437.050781 281.085938 437.050781 281.085938 437.011719 288.324219 C 444.023438 286.304688 450.878906 283.980469 457.925781 282.457031 C 462.457031 281.46875 465.125 279.714844 464.707031 274.761719 C 464.707031 274.648438 464.628906 274.574219 464.363281 274.191406 C 463.753906 276.324219 463.183594 278.230469 462.609375 280.097656 C 462.421875 280.058594 462.269531 280.019531 462.039062 279.980469 C 462.191406 277.886719 462.34375 275.792969 462.457031 273.695312 C 462.304688 273.695312 462.152344 273.695312 462 273.695312 C 461.507812 275.5625 461.011719 277.429688 460.515625 279.296875 C 460.25 279.21875 460.019531 279.144531 459.792969 279.105469 C 459.984375 277.429688 460.136719 275.792969 460.324219 274.152344 C 460.019531 274.078125 459.753906 274.039062 459.449219 273.964844 C 458.953125 275.410156 458.421875 276.820312 457.621094 279.066406 C 457.390625 277.203125 457.238281 276.210938 457.085938 275.21875 C 456.898438 275.144531 456.667969 275.066406 456.402344 274.992188 C 455.90625 276.210938 455.410156 277.429688 454.726562 279.066406 C 454.382812 277.8125 454.078125 276.972656 453.847656 276.097656 C 451.640625 276.820312 449.011719 277.050781 447.527344 278.457031 C 446.117188 279.753906 445.964844 282.34375 445.011719 285.011719 C 444.785156 282.761719 444.632812 281.125 444.480469 279.523438 C 444.175781 279.488281 443.90625 279.449219 443.601562 279.449219 C 443.183594 281.277344 442.765625 283.144531 442.308594 284.972656 Z M 176.613281 434.113281 C 176.535156 433.769531 176.460938 433.390625 176.382812 433.046875 C 172.765625 433.046875 168.878906 432.167969 165.566406 433.160156 C 153.640625 436.816406 141.910156 441.121094 130.480469 445.046875 C 132.460938 446.417969 135.015625 446.761719 138.0625 445.691406 C 142.023438 444.207031 146.214844 443.445312 150.289062 442.226562 C 159.089844 439.597656 167.851562 436.816406 176.613281 434.113281 Z M 260.796875 296.972656 C 261.101562 297.011719 261.445312 297.085938 261.710938 297.046875 C 272.984375 294.6875 284.183594 294 295.117188 298.726562 C 295.535156 298.914062 296.144531 298.953125 296.601562 298.800781 C 299.308594 297.925781 301.972656 296.972656 305.515625 295.753906 C 289.824219 288.742188 275.234375 290.878906 260.796875 296.972656 Z M 394.160156 414.074219 C 394.386719 414.152344 394.578125 414.226562 394.769531 414.265625 C 397.054688 411.445312 399.261719 408.628906 401.585938 405.847656 C 408.898438 397.046875 417.472656 389.617188 426.917969 383.179688 C 429.621094 381.3125 430.421875 378.835938 430.957031 375.179688 C 425.089844 379.828125 419.488281 383.867188 414.347656 388.4375 C 407.679688 394.378906 400.863281 400.324219 396.292969 408.207031 C 395.261719 410 394.84375 412.09375 394.160156 414.074219 Z M 168.230469 377.125 C 168.269531 377.464844 168.34375 377.808594 168.382812 378.191406 C 177.144531 376.933594 185.90625 375.902344 194.589844 374.304688 C 203.316406 372.742188 211.921875 370.53125 220.609375 368.628906 C 205.980469 367.941406 173.832031 372.324219 168.230469 377.125 Z M 217.636719 267.527344 C 222.78125 271.183594 227.390625 276.171875 234.929688 276.25 C 248.417969 276.324219 251.804688 276.933594 254.738281 274.648438 C 252.757812 271.21875 249.710938 270.609375 245.976562 271.21875 C 243.960938 271.5625 241.789062 271.449219 239.730469 271.144531 C 232.304688 270.039062 224.875 268.746094 217.636719 267.527344 Z M 200.078125 381.582031 C 202.820312 382.113281 205.753906 383.410156 208.34375 382.988281 C 217.179688 381.503906 225.941406 379.5625 234.664062 377.464844 C 238.777344 376.476562 242.703125 374.761719 246.703125 373.429688 C 244.492188 372.058594 242.589844 371.292969 240.605469 370.722656 C 239.808594 370.496094 238.703125 370.378906 238.054688 370.722656 C 226.207031 376.933594 213.371094 379.179688 200.078125 381.582031 Z M 235.84375 357.085938 C 236.609375 357.582031 237.140625 357.808594 237.597656 358.191406 C 243.3125 362.648438 249.101562 366.988281 254.664062 371.675781 C 256.796875 373.464844 264.261719 377.3125 268.261719 377.3125 C 262.585938 371.636719 257.597656 366.152344 252.074219 361.3125 C 249.140625 358.761719 246.207031 355.257812 241.367188 356.171875 C 239.691406 356.476562 237.980469 356.742188 235.84375 357.085938 Z M 185.335938 297.46875 C 185.257812 297.125 185.183594 296.820312 185.105469 296.515625 C 183.277344 296.285156 181.335938 295.5625 179.660156 295.90625 C 176.574219 296.589844 173.679688 298 170.632812 298.914062 C 158.480469 302.574219 146.480469 306.839844 133.414062 307.410156 C 136.273438 310.113281 139.089844 311.5625 143.015625 310.304688 C 146.9375 309.011719 151.050781 308.324219 155.011719 307.105469 C 165.144531 303.980469 175.203125 300.667969 185.335938 297.46875 Z M 222.019531 243.867188 C 222.207031 243.5625 222.398438 243.257812 222.589844 242.953125 C 219.617188 240.476562 216.988281 237.203125 213.601562 235.714844 C 207.734375 233.203125 201.410156 231.867188 195.316406 229.925781 C 192.457031 229.011719 189.714844 227.832031 186.628906 226.648438 C 188.953125 231.449219 191.582031 235.144531 196.839844 236.402344 C 202.171875 237.699219 207.3125 239.640625 212.570312 241.238281 C 215.695312 242.191406 218.855469 242.992188 222.019531 243.867188 Z M 148.765625 204.820312 C 148.804688 205.089844 148.878906 205.355469 148.917969 205.582031 C 154.441406 204.972656 160.15625 204.972656 165.488281 203.566406 C 176.117188 200.785156 186.210938 195.792969 197.640625 196.25 C 193.449219 194.269531 189.371094 191.601562 184.496094 193.164062 C 172.574219 196.972656 160.6875 200.9375 148.765625 204.820312 Z M 214.703125 334.152344 C 215.429688 333.886719 215.769531 333.808594 216.113281 333.65625 C 225.371094 329.199219 235.007812 325.886719 245.140625 323.941406 C 250.816406 322.839844 258.96875 318.382812 261.292969 315.027344 C 252.148438 317.199219 242.96875 319.21875 234.167969 322.34375 C 227.121094 324.820312 219.808594 327.410156 214.703125 334.152344 Z M 171.089844 452.855469 C 170.898438 452.472656 170.9375 452.703125 171.050781 452.777344 C 174.058594 455.101562 177.183594 453.386719 180.230469 452.929688 C 190.628906 451.253906 200.535156 448.015625 209.449219 442.265625 C 211.351562 441.007812 213.066406 439.40625 215.199219 437.695312 C 210.210938 435.789062 208.382812 436.207031 205.105469 438.949219 C 203.621094 440.207031 202.019531 441.578125 200.230469 442.265625 C 190.589844 445.882812 180.878906 449.3125 171.089844 452.855469 Z M 526.796875 339.980469 C 514.605469 348.132812 503.292969 357.769531 494.496094 370.265625 C 492.324219 373.3125 492.285156 376.398438 491.714844 379.941406 C 503.710938 366.304688 515.367188 352.972656 526.796875 339.980469 Z M 207.65625 299.335938 C 203.542969 297.847656 200.265625 298 196.609375 300.363281 C 185.640625 307.523438 173.5625 312.4375 160.957031 316.058594 C 158.707031 316.707031 156.421875 317.199219 154.136719 317.734375 C 154.175781 318.039062 154.214844 318.34375 154.25 318.648438 C 157.109375 318.648438 160.230469 319.371094 162.785156 318.496094 C 171.660156 315.523438 180.460938 312.210938 189.105469 308.515625 C 195.46875 305.847656 201.484375 302.421875 207.65625 299.335938 Z M 437.316406 351.5625 C 426.269531 360.628906 415.339844 368.855469 406.652344 379.5625 C 402.84375 384.246094 399.1875 389.085938 397.699219 395.980469 C 406.578125 381.351562 419.070312 371.292969 431.71875 361.617188 C 435.183594 358.953125 436.667969 356.171875 437.316406 351.5625 Z M 311.917969 297.011719 C 307.726562 297.164062 305.136719 297.925781 303.460938 301.695312 C 300.449219 308.402344 296.871094 314.875 293.367188 321.316406 C 291.5 324.742188 289.25 327.941406 286.777344 331.867188 C 300.753906 323.941406 305.972656 310.609375 311.917969 297.011719 Z M 277.824219 381.734375 C 273.59375 371.5625 266.015625 363.867188 258.703125 355.941406 C 258.472656 355.714844 257.976562 355.5625 257.632812 355.5625 C 254.585938 355.523438 251.539062 355.523438 248.492188 355.523438 C 256.414062 360.628906 262.359375 367.371094 267.347656 374.800781 C 270.054688 378.914062 273.40625 380.855469 277.824219 381.734375 Z M 235.199219 393.464844 C 244.722656 397.695312 275.273438 391.714844 280.679688 385.007812 C 276.71875 383.105469 272.796875 381.351562 268.796875 384.96875 C 268.375 385.390625 267.652344 385.464844 267.082031 385.695312 C 257.0625 389.808594 246.738281 392.550781 235.199219 393.464844 Z M 126.710938 280.363281 C 123.433594 278.914062 121.074219 277.125 118.558594 276.898438 C 107.167969 275.714844 95.742188 276.097656 83.550781 277.847656 C 85.761719 279.90625 87.4375 281.582031 89.265625 283.105469 C 89.796875 283.523438 90.714844 283.640625 91.4375 283.5625 C 97.609375 282.878906 103.777344 281.964844 109.949219 281.390625 C 115.207031 280.898438 120.5 280.746094 126.710938 280.363281 Z M 210.972656 357.429688 C 217.066406 359.636719 223.464844 361.921875 229.828125 364.285156 C 237.40625 367.140625 244.949219 370.113281 252.53125 372.972656 C 252.757812 372.550781 252.988281 372.132812 253.214844 371.675781 C 249.027344 368.550781 244.910156 365.238281 240.570312 362.304688 C 237.75 360.398438 234.703125 357.960938 231.578125 357.65625 C 224.570312 356.972656 217.445312 357.429688 210.972656 357.429688 Z M 205.296875 436.511719 C 199.164062 433.65625 193.792969 435.675781 188.609375 439.253906 C 186.402344 440.742188 183.773438 441.65625 181.257812 442.570312 C 175.011719 444.96875 168.726562 447.21875 162.441406 449.539062 C 168.765625 452.742188 198.363281 443.636719 205.296875 436.511719 Z M 408.253906 454.988281 C 410.765625 452.09375 413.050781 449.578125 415.1875 446.949219 C 415.796875 446.1875 416.214844 445.199219 416.441406 444.246094 C 418.347656 435.558594 420.175781 426.835938 422.003906 418.113281 C 422.765625 414.265625 423.414062 410.417969 424.136719 406.53125 C 419.71875 416.589844 415.492188 426.609375 411.566406 436.777344 C 409.355469 442.492188 408.328125 448.511719 408.253906 454.988281 Z M 249.902344 228.859375 C 249.976562 229.886719 249.902344 230.34375 250.054688 230.648438 C 255.652344 242.726562 257.40625 255.601562 258.816406 268.628906 C 259.234375 272.628906 259.160156 277.429688 265.0625 278.6875 C 264.835938 277.203125 264.605469 275.828125 264.378906 274.457031 C 262.511719 263.335938 261.863281 252.019531 258.28125 241.164062 C 256.644531 236.210938 253.597656 232.820312 249.902344 228.859375 Z M 231.085938 249.011719 C 230.511719 246.839844 230.207031 245.355469 229.75 243.867188 C 226.171875 232.324219 221.292969 221.429688 213.332031 212.058594 C 210.894531 209.203125 208.078125 208.175781 204.722656 208.554688 C 207.046875 211.375 209.789062 213.925781 211.503906 216.972656 C 215.085938 223.257812 218.550781 229.699219 221.292969 236.402344 C 223.390625 241.429688 227.160156 244.746094 231.085938 249.011719 Z M 217.027344 346.648438 C 221.902344 346.648438 226.359375 346.6875 230.78125 346.609375 C 231.464844 346.609375 232.226562 346.265625 232.796875 345.847656 C 241.292969 339.636719 249.710938 333.277344 256.261719 324.859375 C 257.328125 323.449219 258.359375 322.039062 259.386719 320.628906 C 255.386719 322.230469 251.347656 323.753906 248.605469 326.535156 C 239.730469 335.636719 229.027344 341.695312 217.027344 346.648438 Z M 458.230469 304.742188 C 458 304.402344 457.734375 304.097656 457.542969 303.753906 C 455.5625 304.554688 453.355469 305.046875 451.640625 306.230469 C 444.746094 311.03125 438.003906 316.058594 431.183594 320.972656 C 425.164062 325.238281 421.964844 331.296875 419.945312 338.113281 C 419.71875 338.914062 419.71875 339.828125 419.605469 340.703125 C 427.792969 328.476562 438.878906 319.753906 450.839844 311.90625 C 453.660156 310.039062 455.792969 307.144531 458.230469 304.742188 Z M 206.972656 257.011719 C 206.820312 257.238281 206.628906 257.429688 206.4375 257.621094 C 208.992188 259.792969 211.238281 262.878906 214.171875 263.867188 C 220.570312 266 227.3125 267.257812 233.980469 268.441406 C 238.664062 269.277344 243.503906 269.316406 248.835938 269.773438 C 245.332031 264.933594 241.863281 262.191406 236.304688 263.03125 C 234.167969 263.335938 231.769531 262.648438 229.558594 262.152344 C 222.019531 260.515625 214.515625 258.726562 206.972656 257.011719 Z M 235.921875 370.570312 C 230.285156 368.171875 224.953125 369.160156 219.65625 370.34375 C 210.78125 372.324219 201.941406 374.34375 193.066406 376.324219 C 190.667969 376.855469 188.304688 377.390625 185.945312 377.921875 C 188.800781 378.988281 191.660156 380.285156 194.25 379.902344 C 204.230469 378.378906 214.210938 376.550781 224.113281 374.496094 C 228.113281 373.617188 232 371.902344 235.921875 370.570312 Z M 272.910156 338.648438 C 275.730469 337.164062 279.917969 336.171875 282.128906 333.46875 C 287.195312 327.296875 291.5 320.476562 295.726562 313.65625 C 298.46875 309.164062 300.449219 304.25 302.925781 299.296875 C 298.660156 299.828125 295.613281 301.164062 294.585938 305.390625 C 294.242188 306.839844 293.402344 308.285156 292.566406 309.542969 C 286.011719 319.296875 279.421875 329.046875 272.910156 338.648438 Z M 96.3125 288.894531 C 99.054688 292.019531 100.996094 294.269531 102.636719 296.132812 C 117.261719 290.6875 131.96875 289.238281 146.824219 287.828125 C 143.8125 286.878906 140.691406 285.695312 137.644531 285.847656 C 124.082031 286.648438 110.558594 287.828125 96.3125 288.894531 Z M 411.949219 151.183594 C 417.546875 157.699219 472.78125 171.109375 485.007812 170.765625 C 481.847656 169.128906 478.648438 167.222656 475.21875 166.421875 C 463.640625 163.71875 451.945312 161.585938 440.363281 158.84375 C 430.726562 156.554688 421.242188 153.699219 411.949219 151.183594 Z M 419.183594 443.179688 C 421.015625 441.082031 423.148438 439.558594 423.792969 437.578125 C 425.28125 433.199219 426.308594 428.589844 427.070312 424.015625 C 428.671875 414.609375 430.042969 405.121094 431.296875 395.675781 C 431.945312 390.722656 432.214844 385.695312 432.671875 380.742188 C 432.328125 380.667969 431.945312 380.589844 431.566406 380.511719 C 430.078125 387.21875 428.367188 393.921875 427.070312 400.664062 C 424.402344 414.570312 421.890625 428.550781 419.183594 443.179688 Z M 223.3125 324.972656 C 224.570312 324.363281 225.292969 324.019531 225.980469 323.636719 C 235.617188 318.875 245.710938 315.714844 256.453125 314.648438 C 263.042969 314 269.40625 312.628906 274.851562 307.753906 C 273.976562 307.753906 273.367188 307.753906 272.796875 307.753906 C 259.921875 307.335938 247.808594 310.761719 235.84375 314.953125 C 230.78125 316.742188 226.511719 319.675781 223.3125 324.972656 Z M 222.78125 389.808594 C 225.675781 390.496094 228.644531 392.09375 231.503906 391.828125 C 238.96875 391.105469 246.472656 390 253.789062 388.285156 C 259.730469 386.875 265.445312 384.398438 271.882812 382.191406 C 266.664062 379.257812 262.433594 377.277344 257.710938 381.125 C 256.414062 382.191406 254.550781 382.722656 252.875 383.140625 C 242.96875 385.390625 233.027344 387.523438 222.78125 389.808594 Z M 219.769531 298.34375 C 217.597656 298.34375 215.429688 298.269531 213.257812 298.382812 C 212.074219 298.457031 210.667969 298.574219 209.789062 299.183594 C 199.695312 306.304688 188.421875 311.105469 177.144531 315.945312 C 173.714844 317.390625 170.175781 318.609375 165.945312 320.210938 C 172.535156 320.515625 177.753906 319.636719 183.355469 317.429688 C 196.230469 312.476562 208.496094 306.609375 219.769531 298.34375 Z M 241.519531 221.011719 C 241.214844 221.277344 240.875 221.546875 240.570312 221.8125 C 247.082031 235.257812 249.519531 249.695312 251.121094 264.324219 C 251.617188 268.972656 254.128906 271.5625 258.054688 273.964844 C 257.367188 269.660156 256.71875 265.773438 256.226562 261.886719 C 254.738281 250.34375 252.148438 239.070312 247.007812 228.554688 C 245.671875 225.8125 243.386719 223.527344 241.519531 221.011719 Z M 193.523438 316.515625 C 193.105469 316.476562 193.5625 316.628906 193.90625 316.515625 C 201.21875 313.847656 208.953125 312.019531 215.734375 308.363281 C 227.542969 301.960938 239.425781 296.894531 253.140625 296.933594 C 255.5 296.933594 257.863281 295.144531 260.226562 294.152344 C 260.109375 293.8125 260.035156 293.46875 259.921875 293.125 C 256.757812 293.125 253.484375 292.628906 250.398438 293.199219 C 243.882812 294.421875 237.523438 296.742188 230.96875 297.46875 C 225.597656 298.078125 221.21875 299.90625 216.761719 302.800781 C 209.027344 307.753906 200.914062 312.171875 193.523438 316.515625 Z M 560.394531 316.402344 C 560.316406 316.058594 560.242188 315.675781 560.164062 315.335938 C 554.566406 316.667969 548.851562 317.582031 543.40625 319.410156 C 526.796875 324.972656 511.941406 333.621094 499.410156 345.960938 C 496.894531 348.4375 494.265625 350.914062 495.179688 355.5625 C 496.132812 354.992188 496.4375 353.695312 497.238281 352.933594 C 503.371094 347.332031 509.351562 341.46875 515.902344 336.285156 C 524.585938 329.429688 534.339844 324.171875 545.460938 322.609375 C 551.101562 321.773438 556.089844 320.058594 560.394531 316.402344 Z M 437.773438 361.429688 C 433.546875 371.21875 434.839844 381.351562 433.46875 391.066406 C 432.097656 400.511719 431.183594 410.035156 429.925781 419.558594 C 429.242188 424.511719 428.214844 429.390625 427.335938 434.339844 C 428.707031 433.121094 429.738281 431.710938 430.269531 430.152344 C 433.242188 420.933594 434.535156 411.371094 436.175781 401.882812 C 438.078125 390.457031 438.652344 379.066406 438.421875 367.601562 C 438.382812 365.65625 438.003906 363.753906 437.773438 361.429688 Z M 195.238281 461.921875 C 195.316406 462.226562 195.351562 462.453125 195.429688 462.722656 C 200.113281 462.1875 204.875 462.074219 209.484375 461.007812 C 215.886719 459.523438 222.742188 458.339844 228.339844 455.21875 C 234.09375 451.980469 238.664062 446.609375 243.578125 442 C 244.722656 440.929688 245.101562 439.027344 246.015625 437.082031 C 243.960938 437.199219 242.625 437.273438 241.332031 437.3125 C 241.484375 437.617188 241.597656 437.921875 241.75 438.226562 C 228.226562 449.769531 212.683594 457.617188 195.238281 461.921875 Z M 293.746094 302.726562 C 289.632812 303.792969 286.164062 305.277344 283.765625 309.238281 C 277.289062 319.828125 270.472656 330.230469 261.292969 338.722656 C 259.882812 340.019531 258.472656 341.3125 256.644531 342.953125 C 262.433594 342.152344 266.96875 340.4375 270.585938 336.363281 C 279.765625 326.191406 287.234375 314.839844 293.746094 302.726562 Z M 434.804688 361.65625 C 419.832031 373.695312 404.253906 385.007812 396.445312 403.371094 C 398.5 401.3125 400.367188 399.066406 402.386719 396.96875 C 410.386719 388.511719 419.375 381.277344 429.089844 374.800781 C 430.195312 374.074219 431.566406 373.199219 431.945312 372.09375 C 433.128906 368.667969 433.890625 365.125 434.804688 361.65625 Z M 447.257812 330.914062 C 444.746094 334.191406 443.871094 337.199219 445.355469 340.855469 C 452.097656 357.007812 454.078125 374.074219 454.726562 391.371094 C 454.917969 395.714844 454.765625 400.019531 454.765625 404.742188 C 456.097656 401.730469 458.152344 399.027344 458.34375 396.132812 C 458.761719 391.105469 458.421875 385.886719 457.734375 380.820312 C 456.363281 371.066406 454.765625 361.351562 452.78125 351.714844 C 451.375 344.703125 449.164062 337.847656 447.257812 330.914062 Z M 401.359375 142.539062 C 422.347656 154.5 446.15625 157.433594 469.238281 162.878906 C 447.070312 154.652344 425.203125 145.507812 401.359375 142.539062 Z M 160.347656 292.25 C 160.382812 291.867188 160.421875 291.488281 160.460938 291.105469 C 156.535156 290.609375 152.539062 289.316406 148.652344 289.695312 C 138.289062 290.726562 127.929688 292.363281 117.644531 294 C 113.339844 294.648438 109.148438 295.945312 104.046875 297.164062 C 108.921875 299.675781 112.808594 301.886719 117.683594 300.820312 C 128.234375 298.421875 138.824219 296.058594 149.414062 293.847656 C 152.996094 293.085938 156.6875 292.742188 160.347656 292.25 Z M 197.21875 244.515625 C 197.90625 245.621094 198.4375 246.648438 199.199219 247.527344 C 201.5625 250.269531 203.011719 253.925781 207.160156 254.917969 C 214.820312 256.707031 222.359375 258.839844 230.015625 260.515625 C 233.332031 261.238281 236.796875 261.203125 240.988281 261.621094 C 237.828125 258.6875 235.503906 256.441406 233.066406 254.304688 C 232.417969 253.734375 231.503906 253.316406 230.628906 253.125 C 227.808594 252.515625 224.914062 252.171875 222.132812 251.449219 C 213.90625 249.238281 205.675781 246.878906 197.21875 244.515625 Z M 211.847656 385.3125 C 214.09375 385.886719 216.914062 386.988281 219.808594 387.21875 C 222.550781 387.410156 225.371094 386.609375 228.152344 386.34375 C 237.253906 385.464844 246.246094 383.980469 254.816406 380.589844 C 256.796875 379.789062 258.738281 378.761719 261.328125 377.542969 C 259.617188 376.894531 258.703125 376.589844 257.863281 376.207031 C 253.140625 374 248.949219 374 243.65625 376.019531 C 233.292969 379.980469 222.324219 382.34375 211.847656 385.3125 Z M 214.78125 210.382812 C 215.160156 210.957031 215.3125 211.222656 215.503906 211.449219 C 223.921875 221.8125 229.40625 233.660156 232.074219 246.613281 C 233.332031 252.59375 237.675781 255.183594 241.519531 258.6875 C 241.558594 257.621094 241.332031 256.746094 241.140625 255.867188 C 238.511719 243.753906 234.167969 232.25 228.609375 221.203125 C 225.789062 215.601562 221.828125 211.296875 214.78125 210.382812 Z M 192.421875 435.40625 C 192.421875 435.066406 192.457031 434.761719 192.457031 434.417969 C 188.648438 434.074219 184.839844 433.65625 180.992188 433.390625 C 180.230469 433.3125 179.355469 433.65625 178.667969 434 C 169.566406 438.949219 159.660156 441.578125 149.757812 444.207031 C 145.871094 445.273438 141.984375 446.492188 138.101562 447.597656 C 138.136719 447.902344 138.175781 448.246094 138.214844 448.550781 C 140.347656 448.550781 142.441406 448.664062 144.574219 448.511719 C 150.554688 448.167969 156.726562 448.511719 162.441406 447.101562 C 170.328125 445.082031 177.867188 441.695312 185.488281 438.796875 C 187.886719 437.882812 190.132812 436.550781 192.421875 435.40625 Z M 129.527344 427.789062 C 132.425781 427.484375 135.050781 426.988281 137.71875 426.949219 C 145.488281 426.761719 153.335938 426.113281 161.070312 426.875 C 169.261719 427.675781 177.296875 429.847656 185.449219 431.371094 C 187.355469 431.75 189.335938 431.941406 191.316406 432.167969 C 193.21875 432.4375 195.164062 432.589844 197.066406 432.816406 C 187.238281 427.445312 176.648438 424.816406 165.871094 422.683594 C 157.109375 420.933594 148.386719 420.359375 139.546875 421.542969 C 135.320312 422.074219 131.890625 423.828125 129.527344 427.789062 Z M 183.164062 458.570312 C 186.59375 460.816406 190.402344 461.199219 194.894531 460.132812 C 209.980469 456.589844 223.273438 449.351562 236.113281 441.007812 C 237.253906 440.285156 238.132812 439.21875 239.617188 437.847656 C 236.609375 437.847656 234.4375 437.769531 232.226562 437.882812 C 231.273438 437.921875 230.054688 438.035156 229.371094 438.644531 C 222.703125 444.167969 214.820312 447.40625 206.820312 450.378906 C 198.894531 453.3125 190.820312 455.902344 183.164062 458.570312 Z M 460.746094 392.359375 C 461.203125 391.597656 461.46875 391.179688 461.695312 390.722656 C 463.410156 387.292969 462.6875 383.714844 462.421875 380.054688 C 461.507812 367.410156 461.582031 354.648438 458.574219 342.230469 C 456.859375 334.953125 454.308594 328.09375 450.460938 321.351562 C 447.984375 325.199219 446.460938 328.628906 449.242188 332.515625 C 449.546875 332.894531 449.621094 333.429688 449.8125 333.925781 C 456.933594 352.550781 459.488281 372.058594 460.746094 392.359375 Z M 500.78125 180.289062 C 499.484375 179.414062 498.875 179.03125 498.339844 178.613281 C 492.171875 174.003906 484.820312 172.976562 477.503906 172.0625 C 460.136719 169.890625 443.296875 165.773438 426.726562 160.175781 C 424.097656 159.300781 421.433594 158.460938 418.804688 157.585938 C 419.757812 159.070312 420.785156 160.441406 422.15625 161.011719 C 429.433594 163.945312 436.632812 167.414062 444.210938 169.316406 C 456.441406 172.441406 468.933594 174.535156 481.351562 176.976562 C 487.484375 178.15625 493.695312 179.109375 500.78125 180.289062 Z M 141.910156 313.011719 C 144.996094 314.34375 147.546875 317.125 152.308594 316.171875 C 163.699219 313.886719 174.25 309.503906 184.6875 304.742188 C 188.992188 302.800781 193.144531 300.554688 197.410156 298.457031 C 197.257812 297.964844 197.144531 297.46875 197.03125 296.972656 C 193.601562 297.277344 189.980469 297.085938 186.78125 298.078125 C 181.945312 299.523438 177.488281 302.230469 172.6875 303.753906 C 162.480469 307.066406 152.117188 309.960938 141.910156 313.011719 Z M 250.167969 266.6875 C 249.214844 261.390625 248.378906 256.324219 247.386719 251.257812 C 245.484375 241.394531 243.273438 231.640625 238.703125 222.496094 C 236.265625 217.582031 231.730469 216.667969 227.542969 214.800781 C 228.492188 217.050781 229.75 218.953125 230.742188 220.972656 C 235.84375 231.679688 240.074219 242.6875 242.359375 254.34375 C 243.351562 259.296875 244.53125 264.097656 250.167969 266.6875 Z M 184.761719 409.730469 C 185.335938 410.113281 185.601562 410.457031 185.984375 410.570312 C 200.417969 414.761719 213.179688 422.265625 224.988281 431.371094 C 230.511719 435.597656 236.265625 436.4375 242.511719 435.027344 C 233.675781 429.3125 224.914062 422.988281 215.617188 417.695312 C 206.324219 412.359375 196.34375 408.550781 184.761719 409.730469 Z M 548.203125 324.894531 C 548.015625 324.515625 547.863281 324.097656 547.710938 323.675781 C 544.015625 324.78125 540.207031 325.542969 536.664062 326.992188 C 522.644531 332.667969 511.027344 341.808594 500.550781 352.628906 C 496.398438 356.894531 492.628906 360.972656 493.617188 367.257812 C 493.582031 367.257812 493.886719 367.105469 494.074219 366.875 C 504.132812 353.503906 517.082031 343.523438 531.328125 335.027344 C 536.96875 331.714844 542.605469 328.285156 548.203125 324.894531 Z M 174.210938 296.097656 C 174.171875 295.714844 174.171875 295.371094 174.171875 294.992188 C 171.050781 294.457031 167.851562 293.125 164.804688 293.503906 C 155.890625 294.535156 147.015625 296.097656 138.175781 297.773438 C 132.273438 298.914062 126.480469 300.589844 120.425781 302.039062 C 123.929688 303.410156 126.976562 304.589844 130.0625 305.773438 C 130.785156 306.039062 131.625 306.535156 132.308594 306.417969 C 139.242188 305.046875 146.25 303.753906 153.109375 302.039062 C 160.195312 300.285156 167.164062 298.117188 174.210938 296.097656 Z M 555.023438 224.058594 C 555.214844 223.792969 555.40625 223.5625 555.59375 223.296875 C 553.5 222.039062 551.59375 220.175781 549.347656 219.679688 C 539.785156 217.582031 530.109375 215.71875 520.398438 214.191406 C 511.179688 212.707031 501.882812 211.753906 492.628906 210.574219 C 490.875 210.34375 489.160156 210.003906 487.410156 209.734375 C 485.769531 209.507812 484.132812 209.355469 481.769531 209.050781 C 482.761719 209.734375 483.066406 210.039062 483.449219 210.191406 C 497.3125 215.945312 511.371094 220.554688 526.757812 220.59375 C 536.207031 220.59375 545.917969 220.480469 555.023438 224.058594 Z M 227.808594 435.027344 C 222.09375 431.253906 216.609375 427.371094 210.894531 423.863281 C 198.058594 415.867188 184.191406 410.683594 169.070312 409.542969 C 165.296875 409.273438 161.449219 410 157.640625 410.226562 C 157.640625 410.53125 157.679688 410.796875 157.679688 411.101562 C 160.230469 411.410156 162.746094 411.789062 165.296875 412.054688 C 181.410156 413.960938 195.695312 420.476562 208.648438 429.769531 C 214.515625 434 220.304688 436.664062 227.808594 435.027344 Z M 432.746094 428.4375 C 438.421875 424.589844 442.039062 419.75 442.574219 413.046875 C 442.800781 410.035156 443.261719 407.066406 443.527344 404.054688 C 444.859375 389.542969 444.632812 375.066406 443.375 360.589844 C 443.03125 356.972656 441.8125 353.390625 441.011719 349.808594 C 440.667969 349.847656 440.363281 349.847656 440.023438 349.886719 C 439.71875 353.277344 439.109375 356.628906 439.183594 360.019531 C 439.375 369.390625 441.011719 378.875 440.023438 388.09375 C 438.535156 401.617188 437.433594 415.332031 432.746094 428.4375 Z M 293.25 299.90625 C 292.984375 299.714844 292.757812 299.5625 292.527344 299.449219 C 292.03125 299.257812 291.574219 299.105469 291.078125 298.953125 C 282.433594 296.667969 273.671875 297.046875 265.023438 298.535156 C 259.160156 299.523438 253.140625 300.78125 247.730469 303.105469 C 243.007812 305.199219 239.007812 308.933594 234.703125 311.945312 C 240.875 311.066406 246.625 309.582031 252.378906 308.097656 C 260.835938 305.925781 269.367188 305.199219 278.050781 306.230469 C 278.738281 306.304688 279.5 306.078125 280.109375 305.808594 C 284.453125 303.867188 288.792969 301.886719 293.25 299.90625 Z M 546.910156 216.289062 C 547.0625 216.058594 547.175781 215.832031 547.367188 215.601562 C 544.664062 214.039062 542.070312 212.058594 539.175781 211.03125 C 526.605469 206.535156 513.3125 206.269531 500.246094 204.667969 C 492.285156 203.71875 484.324219 202.839844 476.398438 201.699219 C 472.402344 201.125 468.515625 200.058594 464.554688 199.183594 C 467.183594 201.394531 469.847656 203.832031 472.894531 204.515625 C 482.304688 206.613281 491.828125 208.175781 501.351562 209.660156 C 508.929688 210.878906 516.625 211.601562 524.207031 212.707031 C 531.785156 213.8125 539.328125 215.070312 546.910156 216.289062 Z M 464.515625 380.550781 C 473.316406 364.398438 467.753906 332.019531 454.953125 312.476562 C 453.964844 314.230469 452.820312 315.90625 452.136719 317.734375 C 451.753906 318.648438 451.679688 320.171875 452.171875 320.972656 C 458.992188 331.636719 461.660156 343.636719 462.914062 355.980469 C 463.714844 364.171875 464.019531 372.398438 464.515625 380.550781 Z M 496.285156 345.238281 C 497.007812 344.703125 497.542969 344.363281 497.921875 343.980469 C 507.902344 334.078125 519.558594 326.761719 532.320312 321.125 C 540.851562 317.351562 549.652344 314.265625 558.984375 314.230469 C 565.230469 314.230469 569.574219 310.914062 574.296875 307.714844 C 567.136719 307.867188 559.898438 307.90625 553.003906 309.46875 C 533.84375 313.925781 516.855469 322.992188 501.695312 335.484375 C 498.761719 337.925781 496.550781 340.855469 496.285156 345.238281 Z M 442.726562 419.828125 C 443.945312 418.761719 444.859375 418.1875 445.46875 417.390625 C 447.601562 414.609375 450.34375 411.980469 451.410156 408.78125 C 452.554688 405.351562 452.171875 401.390625 452.25 397.617188 C 452.59375 383.789062 451.375 370.152344 448.363281 356.667969 C 447.183594 351.21875 445.394531 345.886719 443.90625 340.476562 C 443.527344 340.515625 443.144531 340.550781 442.765625 340.589844 C 442.421875 342.992188 441.125 345.769531 441.925781 347.714844 C 446.308594 358.457031 446.421875 369.769531 446.421875 380.933594 C 446.460938 393.769531 446.839844 406.800781 442.726562 419.828125 Z M 513.464844 189.546875 C 509.996094 186.613281 506.988281 183.144531 502.113281 182.460938 C 494.914062 181.433594 487.789062 180.175781 480.667969 178.917969 C 470.648438 177.164062 460.59375 175.640625 450.6875 173.394531 C 442.613281 171.566406 434.726562 168.785156 426.613281 166.382812 C 429.242188 168.402344 431.566406 170.992188 434.5 172.328125 C 445.773438 177.433594 457.695312 180.59375 469.847656 182.652344 C 479.484375 184.289062 489.160156 185.546875 498.835938 187.03125 C 503.710938 187.792969 508.589844 188.707031 513.464844 189.546875 Z M 543.214844 291.523438 C 553.082031 290.230469 563.441406 288.820312 573.839844 287.640625 C 579.746094 286.953125 585.6875 286.457031 591.628906 286.304688 C 599.628906 286.078125 607.667969 286.230469 615.703125 286.34375 C 618.789062 286.382812 621.953125 287.183594 625 286.800781 C 628.617188 286.382812 632.121094 285.085938 635.664062 284.171875 C 617.496094 274.839844 558.300781 282.800781 543.214844 291.523438 Z M 212.722656 433.769531 C 206.285156 430.113281 199.886719 426.304688 193.371094 422.796875 C 182.59375 417.085938 170.898438 414.875 158.898438 413.085938 C 150.671875 411.828125 144.765625 415.140625 138.175781 419.597656 C 139.738281 419.597656 140.652344 419.710938 141.566406 419.558594 C 148.652344 418.492188 155.660156 418.875 162.667969 420.246094 C 173.945312 422.417969 185.21875 424.589844 195.582031 429.847656 C 200.875 432.550781 206.285156 434.644531 212.722656 433.769531 Z M 649.1875 288.667969 C 643.894531 286.457031 645.265625 285.847656 642.101562 290.457031 C 641.683594 291.066406 641.339844 291.714844 640.960938 292.324219 C 631.589844 308.476562 621.683594 324.25 609.761719 338.6875 C 607.667969 341.160156 605.726562 343.714844 603.707031 346.230469 C 608.46875 343.027344 612.695312 339.296875 616.925781 335.636719 C 626.140625 327.753906 633.152344 317.960938 640.730469 308.628906 C 645.417969 302.878906 647.320312 295.828125 649.1875 288.667969 Z M 537.273438 208.402344 C 537.425781 208.175781 537.578125 207.945312 537.765625 207.71875 C 535.671875 206.421875 533.730469 204.820312 531.519531 203.871094 C 521.882812 199.753906 511.636719 198.347656 501.3125 197.089844 C 490.683594 195.792969 480.09375 194.078125 469.582031 192.210938 C 462.992188 190.992188 456.476562 189.128906 449.886719 187.566406 C 453.542969 191.335938 457.582031 194.308594 462.761719 195.984375 C 474.113281 199.679688 485.921875 200.820312 497.695312 202.15625 C 510.949219 203.640625 524.359375 204.554688 537.273438 208.402344 Z M 438.574219 177.433594 C 440.289062 178.878906 442.230469 181.355469 444.785156 182.5 C 460.25 189.242188 476.859375 191.566406 493.390625 194.003906 C 500.550781 195.070312 507.789062 195.871094 514.949219 197.089844 C 519.140625 197.773438 523.214844 199.109375 527.292969 200.136719 C 524.320312 197.46875 521.386719 194.308594 517.84375 193.164062 C 511.445312 191.109375 504.742188 190.078125 498.113281 189.011719 C 489.582031 187.640625 480.894531 187.144531 472.4375 185.433594 C 460.898438 183.109375 449.507812 180.058594 438.574219 177.433594 Z M 282.546875 306.6875 C 276.261719 310.191406 269.9375 313.695312 263.652344 317.199219 C 263.15625 317.46875 262.851562 318.113281 262.546875 318.648438 C 257.671875 327.296875 251.121094 334.496094 243.273438 340.550781 C 241.027344 342.304688 238.703125 343.980469 236.417969 345.65625 C 239.996094 345.847656 243.386719 345.542969 246.703125 344.933594 C 248.910156 344.589844 251.464844 344.324219 253.0625 343.066406 C 265.558594 333.316406 274.472656 320.515625 282.546875 306.6875 Z M 630.140625 280.210938 C 606.371094 264.746094 555.023438 270.609375 539.863281 290.382812 C 554.070312 283.335938 569.117188 281.355469 584.125 279.296875 C 599.25 277.203125 614.371094 276.363281 630.140625 280.210938 Z M 580.660156 363.066406 C 580.851562 363.332031 581.117188 363.636719 581.308594 363.90625 C 585.460938 360.703125 590.375 358.113281 593.574219 354.152344 C 604.582031 340.667969 615.285156 326.914062 625.570312 312.859375 C 631.816406 304.324219 637.074219 295.105469 642.789062 286.191406 C 642.636719 285.847656 642.523438 285.542969 642.371094 285.238281 C 640.390625 285.925781 638.140625 286.230469 636.425781 287.335938 C 630.21875 291.449219 626.941406 298 623.246094 304.097656 C 610.601562 324.894531 598.066406 345.734375 580.660156 363.066406 Z M 402.308594 270.34375 C 408.519531 274.039062 409.015625 267.449219 412.175781 266.230469 C 412.40625 266.457031 412.558594 266.648438 412.785156 266.839844 C 411.566406 268.476562 410.347656 270.152344 409.167969 271.753906 C 410.996094 273.125 412.289062 272.628906 413.660156 270.914062 C 414.652344 269.660156 416.101562 268.746094 417.507812 267.5625 C 417.394531 266.800781 417.320312 265.660156 417.050781 264.554688 C 414.765625 256.476562 411.492188 248.59375 401.738281 247.601562 C 396.558594 247.070312 391.835938 248.171875 387.570312 251.105469 C 386.160156 252.097656 384.484375 253.582031 386.882812 255.601562 C 388.40625 254.382812 389.816406 253.203125 391.796875 251.527344 C 391.300781 254.726562 387.722656 255.222656 388.332031 258.609375 C 390.3125 256.859375 391.796875 255.527344 393.738281 253.847656 C 393.585938 257.507812 388.519531 258.382812 390.617188 262.574219 C 392.558594 260.820312 394.160156 259.335938 395.757812 257.847656 C 395.757812 261.390625 390.84375 262.078125 391.835938 266.535156 C 394.3125 264.171875 396.328125 262.269531 398.3125 260.363281 C 398.578125 260.667969 398.882812 260.933594 399.148438 261.238281 C 397.625 262.839844 396.292969 264.746094 394.5 266.039062 C 392.214844 267.714844 392.328125 269.621094 393.015625 272.515625 C 394.84375 270.421875 396.367188 268.707031 397.851562 266.992188 C 401.128906 263.257812 401.128906 263.257812 402.917969 263.640625 C 400.40625 266.574219 398.003906 269.390625 395.757812 272.097656 C 401.777344 273.46875 403.566406 266.953125 407.910156 264.972656 C 408.136719 265.238281 408.328125 265.507812 408.558594 265.773438 C 406.5 267.257812 404.480469 268.746094 402.308594 270.34375 Z M 620.160156 288.324219 C 620.085938 287.90625 620.046875 287.488281 619.972656 287.066406 C 608.734375 287.675781 597.496094 287.945312 586.257812 288.933594 C 573.230469 290.078125 560.203125 291.640625 547.253906 293.351562 C 537.347656 294.6875 528.96875 298.609375 525.234375 308.667969 C 532.777344 303.753906 540.851562 300.058594 550.109375 298.609375 C 565.078125 296.285156 580.011719 293.925781 595.171875 294.6875 C 604.390625 295.144531 611.859375 290.648438 620.160156 288.324219 Z M 546.566406 329.046875 C 532.128906 337.390625 489.429688 382.835938 487.90625 391.257812 C 496.171875 389.886719 496.019531 389.734375 501.617188 384.476562 C 519.0625 368.171875 531.902344 348.09375 546.566406 329.046875 Z M 598.410156 295.980469 C 597.230469 295.90625 596.734375 295.828125 596.277344 295.867188 C 583.328125 297.164062 570.335938 298.152344 557.421875 299.828125 C 549.882812 300.78125 542.070312 301.429688 535.328125 305.582031 C 528.246094 309.960938 521.121094 314.304688 514.378906 319.144531 C 510.1875 322.152344 506.683594 326.078125 502.875 329.621094 C 503.140625 329.925781 503.371094 330.191406 503.636719 330.496094 C 505.578125 329.125 507.445312 327.714844 509.386719 326.417969 C 528.246094 314.152344 548.015625 304.285156 571.289062 306.113281 C 576.773438 306.535156 580.8125 304.894531 585.15625 302.648438 C 589.34375 300.515625 593.574219 298.421875 598.410156 295.980469 Z M 572.128906 313.199219 C 558.71875 318.914062 548.585938 328.324219 540.625 340.09375 C 530.757812 354.648438 520.359375 368.742188 508.132812 381.351562 C 505.808594 383.75 503.332031 385.960938 500.933594 388.246094 C 501.085938 388.589844 501.273438 388.894531 501.425781 389.238281 C 504.054688 388.398438 507.179688 388.207031 509.273438 386.648438 C 520.777344 378.226562 529.84375 367.410156 538.414062 356.171875 C 549.425781 341.65625 557.539062 324.894531 572.128906 313.199219 Z M 379.875 354.152344 C 381.128906 354.6875 381.96875 355.332031 382.921875 355.484375 C 394.804688 357.3125 406.613281 349.3125 409.320312 337.65625 C 410.917969 330.722656 404.902344 321.542969 398.5 321.65625 C 393.167969 321.773438 387.875 322.570312 382.539062 323.066406 C 382.539062 323.867188 382.578125 324.667969 382.578125 325.429688 C 386.652344 325.773438 390.84375 323.257812 394.957031 323.714844 C 394.957031 324.019531 394.996094 324.25 395.035156 324.554688 C 391.109375 325.503906 387.1875 326.457031 382.996094 327.523438 C 383.378906 328.589844 383.683594 329.542969 384.027344 330.496094 C 387.605469 329.582031 390.957031 328.742188 394.234375 327.90625 C 394.347656 328.246094 394.425781 328.628906 394.539062 328.972656 C 391.835938 329.886719 389.167969 330.839844 386.425781 331.601562 C 383.570312 332.363281 383.570312 332.246094 384.140625 335.144531 C 387.300781 334.417969 390.425781 333.695312 393.585938 332.972656 C 393.703125 333.238281 393.777344 333.503906 393.890625 333.773438 C 393.28125 334.113281 392.671875 334.609375 392.023438 334.800781 C 389.625 335.484375 387.1875 335.941406 384.824219 336.703125 C 384.0625 336.972656 383.53125 337.886719 382.921875 338.496094 C 383.113281 338.722656 383.339844 338.992188 383.570312 339.257812 C 386.273438 338.875 388.976562 338.535156 391.683594 338.152344 C 391.757812 338.535156 391.796875 338.875 391.871094 339.257812 C 389.929688 339.675781 388.027344 340.246094 386.082031 340.398438 C 382.351562 340.703125 382.234375 340.667969 382.199219 343.601562 C 385.167969 343.601562 388.140625 343.601562 391.109375 343.601562 C 391.148438 343.941406 391.148438 344.246094 391.1875 344.589844 C 388.558594 344.855469 385.929688 345.429688 383.300781 345.390625 C 380.863281 345.3125 379.722656 346.113281 379.378906 348.703125 C 383.453125 348.515625 387.300781 348.324219 391.1875 348.09375 C 391.1875 348.515625 391.226562 348.933594 391.226562 349.351562 C 386.578125 349.734375 381.929688 350.113281 377.246094 350.496094 C 377.320312 351.027344 377.359375 351.523438 377.4375 352.019531 C 382.386719 352.019531 387.300781 352.019531 392.253906 352.019531 C 392.253906 352.476562 392.292969 352.894531 392.292969 353.351562 C 388.332031 353.617188 384.332031 353.886719 379.875 354.152344 Z M 617.839844 291.640625 C 615.398438 292.554688 612.238281 293.847656 609 294.878906 C 605.191406 296.019531 601.878906 297.886719 599.476562 301.046875 C 592.085938 310.875 584.164062 320.402344 577.613281 330.761719 C 569.652344 343.484375 560.890625 355.484375 551.214844 366.875 C 546.414062 372.550781 541.121094 377.734375 536.054688 383.140625 C 540.28125 382.152344 544.359375 380.894531 547.898438 377.808594 C 559.9375 367.410156 570.109375 355.332031 579.707031 342.839844 C 587.515625 332.667969 594.257812 321.695312 601.878906 311.371094 C 606.945312 304.402344 612.695312 297.925781 617.839844 291.640625 Z M 552.472656 377.847656 C 552.433594 377.886719 552.929688 377.734375 553.347656 377.542969 C 560.394531 374.191406 568.203125 372.324219 573.878906 366.53125 C 577.382812 362.953125 581.191406 359.5625 584.277344 355.675781 C 592.355469 345.3125 600.429688 334.953125 608.011719 324.171875 C 616.582031 311.980469 622.980469 298.304688 633 286.914062 C 629.457031 287.945312 625.304688 288.402344 622.714844 290.648438 C 615.476562 296.972656 608.925781 303.945312 603.628906 312.132812 C 595.972656 323.90625 588.125 335.636719 579.480469 346.6875 C 570.945312 357.617188 561.308594 367.753906 552.472656 377.847656 Z M 341.894531 384.207031 C 338.429688 384.207031 335.078125 384.207031 331.726562 384.207031 C 331.726562 383.902344 331.726562 383.636719 331.726562 383.332031 C 334.960938 383.332031 338.164062 383.332031 341.703125 383.332031 C 341.550781 381.921875 341.476562 380.972656 341.324219 379.523438 C 338.011719 379.523438 335.039062 379.523438 332.03125 379.523438 C 332.066406 379.371094 332.066406 379.179688 332.066406 379.027344 C 335.078125 378.761719 338.046875 378.417969 341.058594 378.152344 C 341.210938 376.742188 341.324219 375.675781 341.476562 374.34375 C 338.238281 374.570312 335.304688 374.761719 332.371094 374.988281 C 335.304688 372.171875 340.867188 375.332031 342.582031 369.277344 C 337.78125 369.503906 333.515625 369.734375 329.25 369.960938 C 329.25 369.617188 329.25 369.238281 329.210938 368.894531 C 333.132812 368.4375 337.019531 367.753906 340.90625 367.5625 C 343.152344 367.445312 343.761719 366.496094 343.800781 364.210938 C 338.65625 364.476562 333.707031 364.78125 328.714844 365.046875 C 329.132812 364.210938 329.628906 363.789062 330.164062 363.753906 C 334.316406 363.449219 338.46875 363.066406 342.582031 363.027344 C 344.371094 362.988281 345.628906 362.914062 345.820312 360.363281 C 339 360.363281 332.335938 360.363281 325.285156 360.363281 C 325.820312 359.90625 326.085938 359.484375 326.429688 359.410156 C 332.675781 358.039062 338.925781 357.429688 345.285156 358.761719 C 346.238281 358.953125 347.378906 358.457031 348.828125 358.226562 C 348.144531 357.390625 348.027344 357.199219 347.875 357.046875 C 347.722656 356.933594 347.496094 356.855469 347.304688 356.78125 C 335.230469 352.515625 323.6875 353.390625 313.289062 361.160156 C 307.421875 365.542969 304.03125 371.484375 305.136719 379.332031 C 306.242188 387.332031 311.496094 391.789062 317.554688 395.027344 C 321.933594 392.664062 325.933594 390.496094 329.667969 388.511719 C 327.574219 387.675781 325.210938 386.800781 322.847656 385.886719 C 322.925781 385.769531 323 385.65625 323.039062 385.542969 C 329.78125 386.722656 336.523438 387.941406 343.648438 389.199219 C 342.960938 387.257812 342.503906 385.960938 341.894531 384.207031 Z M 305.097656 406.113281 C 305.136719 405.921875 305.136719 405.730469 305.136719 405.542969 C 303.15625 405.199219 301.058594 404.398438 299.15625 404.628906 C 293.9375 405.3125 288.757812 406.417969 283.613281 407.410156 C 282.585938 407.5625 281.0625 408.476562 280.757812 408.132812 C 278.507812 405.808594 277.441406 408.664062 275.917969 409.085938 C 275.15625 409.3125 274.546875 410 273.898438 410.570312 C 264.492188 418.304688 265.519531 430.761719 276.148438 436.742188 C 283.003906 440.511719 290.28125 441.273438 297.898438 439.371094 C 303.957031 437.882812 309.175781 435.066406 313.136719 430 C 308.410156 430.644531 303.839844 431.253906 299.308594 431.902344 C 299.230469 431.523438 299.195312 431.179688 299.117188 430.796875 C 302.089844 430.226562 305.097656 429.730469 308.03125 429.085938 C 314.851562 427.558594 314.851562 427.523438 315.726562 424.628906 C 313.707031 425.238281 311.917969 425.847656 310.050781 426.304688 C 308.296875 426.683594 306.507812 426.835938 304.753906 427.066406 C 304.71875 426.835938 304.679688 426.570312 304.640625 426.304688 C 308.105469 425.160156 311.613281 424.015625 315.078125 422.835938 C 314.203125 420.589844 313.097656 419.867188 310.925781 420.816406 C 309.363281 421.503906 307.574219 421.769531 305.820312 422.074219 C 304.03125 422.339844 302.203125 422.457031 300.414062 422.644531 C 300.375 422.378906 300.375 422.113281 300.335938 421.847656 C 304.449219 420.742188 308.5625 419.597656 312.679688 418.457031 C 312.601562 418.035156 312.5625 417.65625 312.488281 417.238281 C 307.839844 417.578125 303.195312 417.921875 298.546875 418.304688 C 298.546875 417.960938 298.507812 417.695312 298.507812 417.351562 C 302.851562 416.664062 307.191406 415.941406 311.535156 415.21875 C 311.460938 414.875 311.382812 414.570312 311.34375 414.265625 C 306.621094 414.265625 301.898438 414.265625 297.210938 414.265625 C 297.175781 414 297.175781 413.769531 297.136719 413.542969 C 301.859375 412.96875 306.546875 412.398438 311.269531 411.828125 C 311.230469 411.484375 311.191406 411.140625 311.15625 410.761719 C 304.527344 411.410156 297.898438 412.09375 291.269531 412.78125 C 291.195312 412.4375 291.15625 412.09375 291.117188 411.75 C 297.402344 410.796875 303.726562 409.882812 310.011719 408.933594 C 309.972656 408.628906 309.9375 408.285156 309.898438 407.980469 C 302.734375 408.398438 295.535156 408.78125 288.375 409.238281 C 288.335938 408.894531 288.335938 408.628906 288.300781 408.285156 C 293.898438 407.5625 299.5 406.835938 305.097656 406.113281 Z M 512.929688 387.597656 C 514.683594 387.371094 516.132812 387.066406 517.617188 386.953125 C 525.957031 386.378906 533.121094 383.371094 538.644531 376.933594 C 546.71875 367.484375 555.136719 358.304688 562.71875 348.476562 C 568.8125 340.589844 573.652344 331.753906 579.441406 323.601562 C 585.460938 315.179688 591.933594 307.105469 597.800781 299.410156 C 585.726562 303.828125 574.71875 311.371094 565.992188 321.808594 C 559.785156 329.199219 554.605469 337.46875 548.8125 345.238281 C 541.84375 354.570312 534.949219 364.019531 527.519531 373.007812 C 523.253906 378.226562 517.996094 382.570312 512.929688 387.597656 Z M 323.34375 394.304688 C 329.171875 393.425781 335 392.703125 340.867188 393.847656 C 340.257812 394.304688 339.570312 394.417969 338.886719 394.496094 C 334.390625 394.914062 329.78125 394.988281 325.324219 395.867188 C 322.125 396.476562 318.164062 396.398438 316.601562 400.742188 C 320.753906 399.714844 324.5625 398.496094 328.523438 397.847656 C 332.371094 397.199219 336.296875 397.160156 340.179688 396.816406 C 340.21875 397.199219 340.257812 397.578125 340.296875 397.960938 C 339.535156 398.035156 338.808594 398.113281 338.046875 398.265625 C 331 399.714844 323.914062 401.085938 316.867188 402.722656 C 315.6875 403.027344 314.773438 404.398438 313.746094 405.273438 C 314.546875 405.921875 314.8125 405.882812 315.078125 405.847656 C 320.945312 404.589844 326.773438 403.292969 332.640625 402.152344 C 333.667969 401.960938 334.847656 402.457031 336.066406 402.648438 C 328.488281 404.476562 321.363281 406.1875 314.277344 407.980469 C 313.78125 408.09375 313.554688 409.160156 312.90625 410.339844 C 319.304688 409.160156 325.019531 408.132812 330.695312 407.105469 C 330.773438 407.523438 330.808594 407.902344 330.886719 408.285156 C 324.90625 409.578125 318.886719 410.835938 312.984375 412.09375 C 313.136719 414.492188 314.394531 414.875 316.222656 414.457031 C 318.964844 413.847656 321.667969 413.273438 324.449219 412.78125 C 325.171875 412.664062 325.972656 412.933594 326.773438 413.046875 C 326.734375 413.3125 326.734375 413.617188 326.734375 413.921875 C 322.621094 414.722656 318.507812 415.484375 313.363281 416.476562 C 314.851562 417.3125 315.839844 418.339844 316.753906 418.304688 C 318.886719 418.1875 321.019531 417.542969 323.117188 417.238281 C 324.21875 417.085938 325.363281 417.199219 326.507812 417.199219 C 326.507812 417.542969 326.507812 417.882812 326.507812 418.1875 C 323.152344 418.988281 319.800781 419.789062 316.335938 420.589844 C 318.925781 426.378906 324.371094 421.046875 327.878906 423.027344 C 327.839844 423.332031 327.800781 423.636719 327.800781 423.941406 C 325.4375 424.324219 323.117188 424.703125 320.714844 425.121094 C 323.152344 429.046875 326.429688 427.597656 329.628906 426.378906 C 329.707031 426.644531 329.742188 426.949219 329.820312 427.21875 C 328.980469 427.828125 328.105469 428.4375 327.039062 429.199219 C 332.183594 431.066406 337.019531 431.332031 342.046875 430.339844 C 352.410156 428.285156 360.332031 419.371094 359.800781 409.3125 C 359.378906 401.3125 355.191406 395.636719 347.609375 392.4375 C 339.113281 388.855469 331.117188 389.3125 323.34375 394.304688 Z M 350.542969 332.78125 C 350.65625 333.164062 350.769531 333.542969 350.886719 333.886719 C 346.542969 335.296875 342.160156 336.667969 337.707031 338.078125 C 338.199219 339.867188 338.542969 341.125 338.886719 342.457031 C 342.734375 340.742188 346.085938 338.191406 350.351562 339.144531 C 347.800781 340.476562 345.09375 341.3125 342.503906 342.457031 C 339 344.019531 339 344.246094 341.285156 347.636719 C 344.296875 345.277344 347.378906 343.21875 351.226562 343.179688 C 351.34375 343.449219 351.417969 343.675781 351.53125 343.941406 C 348.371094 345.503906 345.210938 347.105469 341.820312 348.78125 C 342.773438 350.152344 343.304688 350.953125 343.839844 351.753906 C 346.695312 350.457031 348.90625 347.980469 352.21875 349.238281 C 349.894531 350.417969 347.609375 351.601562 344.90625 353.007812 C 346.734375 354.378906 348.066406 355.332031 349.324219 356.285156 C 362.238281 347.636719 364.941406 347.027344 375.226562 350.382812 C 379.1875 345.351562 381.128906 339.636719 381.4375 333.199219 C 382.046875 320.363281 372.75 307.105469 357.78125 309.011719 C 352.179688 309.695312 347.800781 312.515625 343.839844 317.011719 C 352.257812 315.601562 353.742188 315.714844 356.410156 318.304688 C 352.902344 318.304688 349.933594 318.304688 346.960938 318.304688 C 348.5625 319.027344 350.125 318.914062 351.648438 319.066406 C 352.867188 319.179688 354.125 319.601562 355.34375 319.867188 C 355.265625 320.132812 355.226562 320.363281 355.152344 320.628906 C 348.980469 319.601562 340.941406 321.621094 339.839844 324.742188 C 344.601562 323.753906 349.285156 322.800781 353.972656 323.90625 C 349.667969 324.894531 345.363281 325.542969 341.09375 326.265625 C 338.429688 326.722656 337.894531 328.554688 338.125 331.027344 C 345.933594 327.5625 350.390625 326.839844 351.457031 328.476562 C 347.835938 329.582031 344.105469 330.722656 340.410156 331.867188 C 338.199219 332.589844 337.132812 333.925781 338.046875 336.09375 C 342.238281 334.953125 346.390625 333.847656 350.542969 332.78125 Z M 481.351562 254.34375 C 481.351562 254 481.390625 253.695312 481.390625 253.355469 C 486.722656 253.085938 492.054688 252.859375 497.617188 252.59375 C 497.3125 251.375 497.199219 250.460938 497.085938 250.460938 C 491.484375 250.078125 485.886719 249.773438 480.324219 249.429688 C 480.324219 249.085938 480.324219 248.707031 480.324219 248.363281 C 485.695312 248.363281 491.066406 248.363281 496.398438 248.363281 C 496.476562 247.867188 496.550781 247.410156 496.589844 246.953125 C 494.722656 244.136719 491.484375 246.003906 488.933594 245.582031 C 486.039062 245.050781 483.066406 244.859375 480.132812 244.515625 C 480.171875 244.324219 480.210938 244.136719 480.246094 243.945312 C 485.125 243.945312 489.960938 243.945312 495.597656 243.945312 C 490.875 239.410156 484.515625 242.15625 480.09375 238.839844 C 483.828125 239.183594 487.5625 239.488281 491.332031 239.792969 C 491.410156 239.488281 491.484375 239.183594 491.523438 238.839844 C 485.277344 237.546875 479.027344 236.210938 472.78125 234.917969 C 472.820312 234.613281 472.859375 234.308594 472.933594 234.003906 C 476.820312 234.421875 480.667969 234.878906 484.972656 235.375 C 475.332031 229.851562 461.050781 231.410156 452.324219 238.6875 C 443.984375 245.621094 443.261719 256.820312 450.878906 264.515625 C 458 271.640625 466.878906 273.390625 476.550781 272.058594 C 474.839844 271.488281 473.011719 271.296875 471.257812 270.992188 C 469.542969 270.6875 467.828125 270.230469 466.117188 269.8125 C 472.667969 268.746094 479.027344 272.019531 485.429688 269.085938 C 481.125 268.746094 476.820312 268.441406 472.515625 268.097656 C 472.515625 267.714844 472.554688 267.335938 472.554688 266.953125 C 473.621094 266.953125 474.6875 266.914062 475.753906 266.953125 C 479.332031 267.105469 482.875 267.5625 486.378906 267.371094 C 488.285156 267.296875 490.152344 266.152344 492.054688 265.46875 C 491.941406 264.972656 491.828125 264.476562 491.714844 263.984375 C 486.683594 263.984375 481.65625 263.984375 476.628906 263.984375 C 481.582031 263.03125 486.496094 262.574219 491.410156 262.574219 C 494.113281 262.609375 495.21875 261.390625 495.75 258.839844 C 490.496094 258.839844 485.429688 258.839844 480.363281 258.839844 C 480.363281 258.457031 480.363281 258.117188 480.363281 257.734375 C 485.769531 257.734375 491.140625 257.734375 496.664062 257.734375 C 496.78125 256.324219 496.816406 255.449219 496.894531 254.34375 C 491.5625 254.34375 486.457031 254.34375 481.351562 254.34375 Z M 374.691406 352.667969 C 367.570312 349.199219 361.054688 350.304688 355.074219 354.535156 C 344.980469 361.65625 340.828125 376.09375 345.363281 387.789062 C 345.703125 388.664062 346.464844 389.429688 347.226562 390 C 350.808594 392.933594 354.429688 395.828125 358.085938 398.648438 C 359.074219 399.445312 360.140625 400.285156 361.324219 400.589844 C 367.378906 402.074219 376.789062 397.464844 379.988281 391.292969 C 376.710938 391.292969 373.625 391.292969 370.542969 391.292969 C 370.503906 390.875 370.503906 390.496094 370.503906 390.074219 C 373.015625 390.074219 375.53125 390.191406 378.007812 390.039062 C 380.75 389.886719 383.113281 389.046875 383.453125 385.65625 C 379.300781 385.542969 375.113281 387.941406 370.199219 386.191406 C 374.65625 385.351562 378.386719 384.476562 382.160156 384.019531 C 384.671875 383.75 385.28125 382.53125 385.09375 380.359375 C 381.167969 380.855469 377.4375 383.140625 372.523438 381.886719 C 376.675781 380.703125 380.027344 379.636719 383.417969 378.835938 C 385.777344 378.226562 386.578125 376.894531 386.121094 374.761719 C 382.425781 375.980469 378.84375 377.160156 375.300781 378.378906 C 375.1875 378.039062 375.074219 377.695312 374.960938 377.351562 C 377.472656 376.363281 379.988281 375.292969 382.539062 374.265625 C 385.320312 373.199219 387.453125 371.75 385.28125 368.324219 C 381.511719 370.496094 378.082031 373.734375 373.285156 374 C 376.40625 371.828125 379.683594 369.921875 382.882812 367.941406 C 384.976562 366.648438 385.664062 365.046875 383.683594 363.027344 C 380.140625 365.429688 377.132812 368.550781 372.636719 368.933594 C 376.140625 366.378906 379.644531 363.867188 383.265625 361.238281 C 382.425781 360.019531 381.894531 359.257812 381.28125 358.378906 C 377.472656 361.886719 374.617188 366.039062 369.320312 367.523438 C 373.207031 363.90625 376.789062 360.589844 380.367188 357.199219 C 380.214844 357.007812 380.027344 356.855469 379.875 356.667969 C 376.789062 359.296875 373.664062 361.921875 370.578125 364.550781 C 370.425781 364.363281 370.273438 364.210938 370.121094 364.019531 C 372.980469 361.199219 375.875 358.378906 378.996094 355.371094 C 377.511719 354.496094 376.75 354.039062 376.21875 353.734375 C 374.160156 355.523438 372.484375 357.390625 370.390625 358.609375 C 369.511719 359.144531 367.761719 358.53125 366.542969 358.074219 C 366.046875 357.847656 365.933594 356.703125 365.628906 355.980469 C 366.808594 355.636719 368.027344 355.027344 369.246094 354.992188 C 370.160156 354.992188 371.113281 355.675781 372.140625 356.132812 C 372.902344 355.066406 373.703125 354 374.691406 352.667969 Z M 376.292969 286.039062 C 372.941406 284.972656 369.855469 283.980469 366.769531 282.992188 C 371.378906 281.734375 376.371094 287.066406 380.445312 280.859375 C 376.789062 280.25 373.4375 279.714844 370.082031 279.144531 C 375.300781 277.8125 380.863281 281.238281 386.160156 276.324219 C 384.253906 276.324219 383.035156 276.402344 381.816406 276.289062 C 380.558594 276.210938 379.339844 275.945312 378.082031 275.753906 C 381.703125 274.992188 385.207031 274.609375 388.75 274.496094 C 390.617188 274.421875 391.453125 273.886719 391.339844 271.90625 C 391.1875 269.8125 389.855469 269.964844 388.445312 270.078125 C 387.722656 270.152344 386.996094 270.535156 386.3125 270.535156 C 384.179688 270.496094 382.046875 270.34375 379.949219 270.269531 C 379.949219 270.039062 379.988281 269.773438 379.988281 269.542969 C 383.453125 269.203125 386.921875 268.859375 390.617188 268.476562 C 390.195312 267.296875 389.929688 266.457031 389.738281 265.8125 C 386.882812 266 384.292969 266.191406 381.664062 266.34375 C 381.625 266.078125 381.589844 265.773438 381.550781 265.46875 C 383.988281 265.050781 386.464844 264.628906 389.054688 264.171875 C 387.910156 259.105469 383.53125 263.984375 381.320312 261.542969 C 383.300781 261.085938 385.015625 260.667969 386.769531 260.289062 C 386.578125 259.488281 386.578125 259.488281 379.492188 258.230469 C 381.664062 257.542969 383.226562 257.050781 385.28125 256.402344 C 383.074219 254.34375 381.320312 252.441406 379.300781 250.839844 C 367.226562 241.277344 350.046875 245.507812 344.484375 259.679688 C 340.027344 270.992188 342.429688 281.355469 350.390625 290.34375 C 355.800781 296.476562 362.578125 299.714844 371.074219 298.382812 C 368.40625 297.621094 365.78125 296.820312 363.113281 296.058594 C 366.160156 294.761719 369.207031 297.734375 372.523438 295.335938 C 368.863281 294 365.894531 292.894531 362.921875 291.828125 C 363 291.523438 363.113281 291.21875 363.226562 290.914062 C 365.4375 291.523438 367.722656 291.90625 369.855469 292.742188 C 372.523438 293.8125 373.4375 292.820312 373.398438 290.152344 C 370.769531 289.507812 368.066406 288.859375 364.714844 287.980469 C 369.015625 286.34375 373.167969 290.800781 376.292969 286.039062 Z M 381.777344 282.6875 C 380.941406 283.144531 380.0625 283.601562 379.226562 284.097656 C 379.53125 284.324219 379.875 284.554688 380.179688 284.820312 C 383.605469 285.203125 387.074219 285.621094 390.5 286 C 390.464844 286.34375 390.425781 286.6875 390.386719 286.992188 C 387.988281 286.992188 385.585938 286.800781 383.1875 287.066406 C 381.054688 287.296875 378.082031 285.621094 376.558594 289.925781 C 380.789062 289.925781 384.558594 289.925781 388.367188 289.925781 C 384.941406 290.878906 381.625 291.21875 378.3125 291.371094 C 374.996094 291.523438 374.464844 292.019531 374.65625 295.945312 C 378.691406 295.5625 382.730469 295.144531 386.769531 294.761719 C 386.804688 295.21875 386.84375 295.714844 386.882812 296.171875 C 382.539062 296.628906 378.199219 297.046875 373.703125 297.503906 C 373.550781 299.105469 373.398438 300.78125 373.207031 302.878906 C 378.464844 301.925781 383.148438 301.085938 387.835938 300.210938 C 387.910156 300.667969 387.988281 301.085938 388.0625 301.503906 C 383.300781 302.535156 378.539062 303.5625 373.816406 304.554688 C 374.578125 308.515625 374.578125 308.554688 378.386719 307.792969 C 380.636719 307.335938 382.808594 306.6875 385.015625 306.230469 C 386.007812 306 387.035156 306.078125 388.0625 306 C 388.0625 306.304688 388.101562 306.609375 388.140625 306.953125 C 384.140625 308.019531 380.140625 309.085938 376.140625 310.152344 C 377.320312 313.351562 377.625 313.582031 380.824219 312.78125 C 382.617188 312.363281 384.367188 311.675781 386.195312 311.257812 C 387.1875 311.03125 388.253906 311.144531 389.28125 311.066406 C 389.320312 311.335938 389.320312 311.601562 389.320312 311.828125 C 386.273438 312.859375 383.226562 313.847656 380.140625 314.875 C 383.492188 319.792969 387.53125 314.992188 391.300781 316.4375 C 389.625 317.046875 387.949219 317.695312 386.007812 318.417969 C 386.691406 318.722656 386.996094 318.953125 387.378906 319.027344 C 401.664062 322.570312 417.660156 314.113281 422.878906 300.285156 C 426.691406 290.152344 423.261719 280.324219 414.269531 275.792969 C 405.546875 271.410156 392.976562 273.125 384.789062 280.402344 C 388.597656 280.402344 391.757812 280.402344 394.882812 280.402344 C 394.882812 280.707031 394.84375 281.050781 394.84375 281.355469 C 391.53125 281.355469 388.214844 281.238281 384.902344 281.429688 C 383.835938 281.46875 382.769531 282.304688 381.703125 282.761719 Z M 63.894531 268.441406 C 68.582031 267.601562 72.199219 266.800781 75.855469 266.304688 C 88.199219 264.59375 100.160156 266.269531 111.550781 271.296875 C 130.175781 279.523438 148.996094 287.105469 168.917969 291.601562 C 175.089844 292.972656 181.410156 293.8125 187.695312 294.421875 C 196.761719 295.296875 205.828125 295.828125 214.894531 296.324219 C 225.332031 296.859375 235.351562 294.457031 245.367188 291.867188 C 251.007812 290.421875 256.53125 290.421875 262.28125 292.132812 C 264.71875 292.859375 267.730469 291.5625 270.96875 291.105469 C 258.472656 287.523438 246.511719 284.742188 234.96875 280.628906 C 220.953125 275.640625 209.789062 266.230469 201.027344 254.34375 C 194.859375 245.964844 189.828125 236.78125 183.925781 228.171875 C 180.191406 222.6875 176.003906 217.46875 171.699219 212.363281 C 168.6875 208.707031 164.230469 207.261719 159.699219 207.261719 C 153.984375 207.261719 148.269531 208.058594 142.519531 208.289062 C 138.40625 208.480469 134.289062 208.328125 130.140625 208.328125 C 130.023438 207.832031 129.910156 207.335938 129.796875 206.878906 C 131.015625 206.382812 132.273438 205.429688 133.453125 205.507812 C 142.0625 206.039062 148.878906 202.535156 155.28125 197.089844 C 166.746094 187.414062 179.734375 186.15625 193.296875 191.832031 C 199.199219 194.308594 204.761719 197.660156 210.324219 200.859375 C 218.628906 205.582031 226.664062 210.804688 235.046875 215.335938 C 246.625 221.621094 256.261719 229.886719 262.242188 241.699219 C 267.121094 251.335938 271.042969 261.429688 275.804688 271.105469 C 278.394531 276.402344 281.710938 281.316406 285.023438 286.230469 C 285.632812 287.183594 287.765625 287.753906 289.0625 287.523438 C 305.328125 284.859375 321.171875 287.105469 336.867188 291.5625 C 340.90625 292.707031 345.171875 292.933594 348.941406 293.542969 C 346.390625 288.402344 343.304688 283.675781 341.589844 278.457031 C 336.792969 263.792969 344.21875 248.707031 357.894531 244.667969 C 367.378906 241.851562 375.453125 245.011719 382.691406 251.105469 C 383.1875 251.488281 383.605469 251.945312 384.0625 252.363281 C 389.929688 244.324219 401.546875 244.289062 407.984375 247.144531 C 410.460938 248.25 412.898438 250.535156 414.269531 252.933594 C 416.480469 256.746094 418.347656 260.933594 419.300781 265.203125 C 419.910156 267.792969 418.539062 270.839844 418.234375 273.695312 C 418.117188 274.609375 418.386719 275.792969 418.917969 276.515625 C 420.097656 278.191406 421.507812 279.792969 422.996094 281.203125 C 423.566406 281.734375 424.746094 282.117188 425.507812 281.964844 C 433.8125 279.828125 442.15625 277.660156 450.382812 275.410156 C 453.085938 274.648438 455.679688 273.660156 458.839844 272.59375 C 457.542969 271.832031 456.554688 271.257812 455.5625 270.726562 C 448.554688 266.800781 443.832031 261.085938 443.566406 252.898438 C 443.296875 243.90625 448.289062 237.582031 455.945312 233.8125 C 468.097656 227.792969 480.132812 228.402344 491.105469 236.859375 C 497.390625 241.699219 501.730469 250.191406 498.152344 258.6875 C 498 259.03125 498 259.410156 497.882812 259.90625 C 503.636719 258.992188 509.121094 257.8125 514.683594 257.316406 C 521.007812 256.746094 527.40625 256.59375 533.730469 256.628906 C 550.644531 256.746094 566.566406 262.382812 582.832031 265.847656 C 593.839844 268.210938 604.925781 270.152344 616.734375 272.441406 C 612.773438 269.847656 609.417969 267.601562 606.03125 265.429688 C 593.992188 257.695312 581.800781 250.230469 569.957031 242.230469 C 564.964844 238.839844 560.625 234.421875 556.167969 230.308594 C 552.777344 227.222656 549.234375 225.050781 544.433594 224.707031 C 532.625 223.945312 520.703125 223.753906 509.234375 221.429688 C 489.960938 217.46875 471.828125 209.964844 456.898438 196.859375 C 441.734375 183.527344 427.488281 169.164062 412.710938 155.414062 C 404.75 147.945312 396.902344 140.175781 385.585938 137.8125 C 385.09375 137.699219 384.636719 137.394531 384.179688 137.128906 C 384.027344 137.015625 383.988281 136.785156 383.417969 135.910156 C 384.636719 135.605469 385.703125 134.996094 386.578125 135.183594 C 413.015625 140.671875 439.03125 147.679688 464.097656 157.585938 C 474.992188 161.851562 485.125 168.0625 495.523438 173.585938 C 512.777344 182.839844 527.445312 195.753906 542.453125 208.023438 C 550.375 214.496094 557.691406 221.773438 565.117188 228.820312 C 578.640625 241.699219 594.183594 251.753906 610.484375 260.554688 C 630.902344 271.601562 651.742188 282.039062 672.578125 292.363281 C 679.890625 295.980469 687.777344 298.496094 695.394531 301.503906 C 698.671875 302.800781 701.945312 304.058594 705.183594 305.429688 C 705.792969 305.695312 706.25 306.34375 706.785156 306.761719 C 704.382812 310.914062 699.585938 312.097656 695.242188 310.078125 C 680.652344 303.105469 665.988281 296.285156 651.167969 289.355469 C 650.675781 291.105469 650.179688 292.554688 649.910156 294.078125 C 648.046875 302.914062 642.828125 309.773438 637.492188 316.859375 C 623.171875 335.828125 605.039062 350.496094 585.726562 363.828125 C 569.003906 375.332031 550.414062 382.914062 530.644531 387.257812 C 523.519531 388.78125 516.246094 389.617188 509.046875 390.648438 C 505.503906 391.179688 501.960938 391.484375 498.378906 391.980469 C 497.390625 392.132812 496.511719 392.742188 495.484375 392.933594 C 494.152344 393.160156 492.742188 393.046875 491.484375 393.464844 C 489.085938 394.226562 486.683594 395.179688 484.363281 396.207031 C 483.484375 396.628906 482.800781 397.542969 482 398.226562 C 481.734375 398.113281 481.429688 398 481.160156 397.882812 C 481.464844 396.816406 481.65625 395.636719 482.152344 394.648438 C 485.160156 388.816406 488.550781 383.179688 489.277344 376.476562 C 490.113281 369.007812 491.292969 361.582031 491.714844 354.074219 C 492.511719 340.019531 498.152344 328.402344 509.199219 319.792969 C 516.703125 313.886719 522.683594 306.878906 528.09375 299.03125 C 538.683594 283.601562 554.070312 275.144531 571.898438 270.648438 C 572.164062 270.574219 572.433594 270.457031 573.613281 270 C 569.003906 269.085938 565.195312 268.441406 561.421875 267.527344 C 543.824219 263.070312 527.292969 267.90625 510.875 273.507812 C 496.816406 278.304688 483.867188 285.085938 473.621094 296.132812 C 471.371094 298.609375 468.78125 301.011719 467.335938 303.90625 C 466.039062 306.570312 465.507812 309.925781 465.582031 312.933594 C 465.695312 318.417969 466.457031 323.90625 467.066406 329.390625 C 468.363281 340.742188 472.058594 351.753906 471.21875 363.410156 C 470.382812 375.179688 466.761719 386.074219 461.8125 396.511719 C 458.6875 403.027344 454.765625 409.199219 450.917969 415.371094 C 449.621094 417.425781 447.5625 419.066406 445.773438 420.855469 C 435.640625 430.796875 425.355469 440.625 415.375 450.761719 C 410.652344 455.484375 407.414062 461.160156 406.957031 468.054688 C 406.957031 468.4375 406.613281 468.742188 406.121094 469.691406 C 404.976562 467.140625 404.140625 465.007812 403.070312 462.988281 C 398.921875 454.988281 395.835938 446.644531 394.160156 437.808594 C 390.921875 420.359375 391.148438 403.179688 398.3125 386.648438 C 400.40625 381.808594 403.375 377.3125 406.234375 372.855469 C 411.796875 364.171875 415.035156 354.6875 416.289062 344.589844 C 417.890625 332.019531 423.832031 322.113281 433.773438 314.761719 C 449.964844 302.761719 466.304688 291.066406 482.800781 279.5625 C 491.941406 273.164062 502.796875 270.574219 513.386719 267.5625 C 514.835938 267.105469 516.285156 266.609375 517.730469 266.117188 C 517.65625 265.8125 517.539062 265.507812 517.464844 265.203125 C 511.253906 266.914062 504.96875 268.441406 498.835938 270.421875 C 481.695312 275.945312 464.667969 281.773438 447.449219 287.21875 C 440.59375 289.390625 433.46875 290.761719 426.347656 292.554688 C 425.164062 307.257812 416.289062 315.867188 402.652344 320.820312 C 403.757812 321.621094 404.824219 322.34375 405.777344 323.21875 C 413.203125 329.734375 413.28125 340.742188 406.042969 348.628906 C 400.140625 355.144531 392.976562 358.152344 383.875 357.960938 C 389.433594 367.601562 389.96875 377.617188 385.167969 387.484375 C 380.332031 397.425781 372.597656 403.410156 360.597656 402.800781 C 364.066406 414.53125 360.105469 423.636719 349.703125 429.351562 C 338.695312 435.332031 327.878906 433.882812 317.820312 426 C 313.441406 435.558594 305.480469 440.09375 295.460938 441.730469 C 285.367188 443.40625 276.492188 441.121094 269.328125 434.113281 C 264.71875 437.695312 260.074219 441.082031 255.652344 444.703125 C 247.386719 451.445312 237.75 455.101562 227.695312 457.996094 C 220.265625 460.132812 212.800781 462.378906 205.21875 463.863281 C 198.554688 465.199219 191.773438 465.160156 185.296875 462.074219 C 178.402344 458.757812 171.46875 455.371094 164.269531 452.742188 C 157.375 450.265625 150.097656 449.960938 142.746094 450.835938 C 140.308594 451.101562 137.492188 450.339844 135.242188 449.3125 C 127.777344 445.882812 120.121094 443.902344 111.890625 444.777344 C 109.835938 444.96875 107.777344 445.273438 104.960938 445.578125 C 105.796875 444.703125 106.253906 443.75 107.015625 443.484375 C 114.671875 440.4375 120.769531 435.523438 125.757812 428.96875 C 134.671875 417.273438 146.59375 410.265625 161.03125 407.828125 C 164.460938 407.257812 168.039062 407.675781 171.546875 407.675781 C 176.117188 407.636719 180.726562 407.980469 185.257812 407.636719 C 196.078125 406.800781 206.058594 409.730469 215.921875 413.578125 C 229.066406 418.722656 242.359375 423.484375 256.378906 425.695312 C 259.234375 426.113281 262.207031 425.769531 265.140625 425.769531 C 264.453125 416.96875 269.597656 406.914062 284.832031 402.683594 C 294.203125 400.09375 303.117188 401.351562 311.15625 406.761719 C 312.867188 403.332031 314.546875 400.054688 316.222656 396.664062 C 312.257812 392.816406 307.496094 392.285156 302.203125 394.417969 C 291.917969 398.570312 281.023438 399.445312 270.128906 400.171875 C 252.566406 401.3125 236 397.273438 219.886719 390.34375 C 207.582031 385.046875 194.707031 381.160156 181.257812 380.09375 C 174.972656 379.597656 168.613281 379.941406 162.289062 380.054688 C 161.03125 380.054688 159.8125 380.703125 157.984375 380.589844 C 159.242188 379.445312 160.382812 378.113281 161.792969 377.125 C 166.59375 373.847656 171.429688 370.648438 176.308594 367.445312 C 184.953125 361.808594 194.476562 358.152344 204.535156 356.324219 C 210.667969 355.179688 217.140625 355.753906 223.425781 355.410156 C 230.207031 355.066406 236.988281 354.800781 243.65625 353.921875 C 253.445312 352.589844 262.664062 352.894531 271.195312 358.761719 C 278.585938 363.789062 285.402344 369.277344 291.535156 375.828125 C 295.269531 379.867188 300.070312 382.953125 304.640625 386.265625 C 302.925781 381.808594 301.898438 377.429688 303.078125 372.820312 C 305.785156 362 313.707031 356.628906 323.726562 353.695312 C 329.933594 351.867188 336.257812 351.867188 343.152344 353.769531 C 337.972656 348.019531 335.496094 341.695312 335.496094 334.6875 C 335.496094 327.675781 337.820312 321.199219 342.316406 315.640625 C 349.363281 306.953125 358.960938 304.972656 372.445312 309.847656 C 372.027344 306.648438 371.644531 303.828125 371.417969 301.886719 C 366.390625 300.628906 362.046875 299.21875 357.589844 298.496094 C 352.597656 297.695312 347.496094 297.46875 342.390625 297.085938 C 339.265625 296.859375 336.144531 296.589844 333.019531 296.707031 C 325.820312 296.933594 321.097656 301.277344 316.5625 306.34375 C 309.746094 314 303.003906 321.773438 295.460938 328.707031 C 285.785156 337.542969 273.328125 341.3125 260.949219 344.78125 C 245.636719 349.046875 229.941406 349.542969 214.132812 349.390625 C 203.773438 349.3125 193.371094 349.921875 182.515625 350.265625 C 183.8125 349.503906 184.878906 348.703125 186.097656 348.210938 C 198.820312 342.609375 210.324219 335.484375 219.65625 324.859375 C 225.980469 317.695312 232.949219 310.992188 239.960938 304.402344 C 242.285156 302.230469 245.597656 301.085938 248.757812 299.296875 C 238.816406 299.867188 230.207031 302.992188 222.019531 307.828125 C 207.808594 316.171875 192.117188 320.859375 175.964844 322.496094 C 162.175781 323.941406 148.421875 321.582031 136.765625 312.894531 C 129.222656 307.296875 120.691406 304.933594 111.664062 303.257812 C 106.140625 302.230469 101.796875 298.574219 97.722656 294.761719 C 90.5625 288.058594 83.359375 281.390625 75.933594 275.03125 C 73.648438 273.050781 70.523438 272.058594 67.78125 270.609375 C 66.714844 270.039062 65.6875 269.46875 63.894531 268.441406 " fill-opacity="1" fill-rule="evenodd"/></g><path fill="#231f20" d="M 356.980469 254.496094 C 358.351562 256.324219 359.800781 257.429688 359.683594 258.34375 C 359.53125 259.601562 358.199219 260.667969 357.359375 261.8125 C 356.445312 260.746094 355.113281 259.753906 354.847656 258.496094 C 354.65625 257.660156 355.875 256.441406 356.980469 254.496094 " fill-opacity="1" fill-rule="evenodd"/><path fill="#231f20" d="M 420.863281 287.828125 C 420.710938 287.980469 420.023438 288.628906 419.414062 289.277344 C 418.042969 287.867188 416.632812 286.457031 415.414062 284.933594 C 415.375 284.859375 416.9375 282.878906 417.472656 282.992188 C 419.453125 283.449219 421.203125 284.4375 420.863281 287.828125 " fill-opacity="1" fill-rule="evenodd"/><path fill="#231f20" d="M 454.496094 252.171875 C 453.277344 253.390625 452.476562 254.191406 451.679688 254.992188 C 450.992188 253.925781 449.886719 252.820312 449.8125 251.714844 C 449.773438 250.765625 450.953125 249.734375 451.601562 248.746094 C 452.441406 249.695312 453.277344 250.6875 454.496094 252.171875 " fill-opacity="1" fill-rule="evenodd"/><path fill="#231f20" d="M 360.5625 316.972656 C 359.648438 315.753906 358.503906 314.761719 358.695312 314.304688 C 359.113281 313.238281 360.179688 312.476562 360.980469 311.5625 C 361.933594 312.4375 362.882812 313.316406 363.835938 314.230469 C 362.921875 314.992188 362.007812 315.753906 360.5625 316.972656 " fill-opacity="1" fill-rule="evenodd"/><path fill="#231f20" d="M 358.3125 409.425781 C 357.246094 410.609375 356.597656 411.332031 355.914062 412.054688 C 355.152344 411.257812 353.78125 410.417969 353.820312 409.617188 C 353.820312 408.78125 355.113281 407.941406 355.875 407.066406 C 356.5625 407.75 357.246094 408.398438 358.3125 409.425781 " fill-opacity="1" fill-rule="evenodd"/><path fill="#231f20" d="M 268.910156 424.589844 C 270.207031 423.445312 270.929688 422.835938 271.691406 422.1875 C 272.375 423.101562 273.441406 423.941406 273.632812 424.933594 C 273.746094 425.503906 272.566406 426.417969 271.957031 427.140625 C 271.121094 426.457031 270.320312 425.730469 268.910156 424.589844 " fill-opacity="1" fill-rule="evenodd"/><path fill="#231f20" d="M 307.613281 376.894531 C 308.601562 375.789062 309.210938 375.105469 309.820312 374.457031 C 310.355469 375.140625 311.34375 375.828125 311.382812 376.515625 C 311.421875 377.277344 310.507812 378.074219 310.011719 378.835938 C 309.363281 378.304688 308.679688 377.734375 307.613281 376.894531 " fill-opacity="1" fill-rule="evenodd"/><path fill="#231f20" d="M 406.003906 338.722656 C 403.644531 337.390625 403.035156 335.601562 404.175781 333.503906 C 404.445312 333.046875 406.195312 332.78125 406.578125 333.164062 C 408.441406 334.992188 407.71875 336.78125 406.003906 338.722656 " fill-opacity="1" fill-rule="evenodd"/></svg>